v -0.09609715 1.04247970 -0.55089510
v -0.10600987 1.05923622 -0.57343486
v -0.09864760 1.02144260 -0.55420739
v -0.16024034 1.02663488 -0.56934883
v -0.14815815 1.02243192 -0.56745790
v -0.13642923 1.01565812 -0.56420396
v -0.12417241 1.01404945 -0.56368363
v -0.11226886 1.00986994 -0.56180029
v -0.10106326 1.00142001 -0.55764988
v -0.16297757 0.99369720 -0.56565436
v -0.15094901 0.99211848 -0.56514373
v -0.13901817 0.98968463 -0.56416892
v -0.12699953 0.98810722 -0.56365871
v -0.11545114 0.98311968 -0.56129517
v -0.10423711 0.97644009 -0.55800918
v -0.09369182 0.96637641 -0.55287829
v -0.17538095 0.98821799 -0.57611448
v -0.16484786 0.97042859 -0.56659851
v -0.15311530 0.96802520 -0.56562314
v -0.14140260 0.96562442 -0.56464861
v -0.12981718 0.96237682 -0.56320218
v -0.11838883 0.95828631 -0.56128510
v -0.10740188 0.95166316 -0.55795485
v -0.09680845 0.94336461 -0.55368669
v -0.17892945 0.94121736 -0.56330713
v -0.16794932 0.93376265 -0.55943697
v -0.15649638 0.93225948 -0.55895077
v -0.14504345 0.93075632 -0.55846458
v -0.13348328 0.93009817 -0.55846012
v -0.12190326 0.92943741 -0.55845482
v -0.11068465 0.92624683 -0.55700599
v -0.18138110 0.90818212 -0.55749719
v -0.17095889 0.89826777 -0.55210201
v -0.19788415 0.82504190 -0.55729776
v -0.18759648 0.82201790 -0.55579861
v -0.17719555 0.82065280 -0.55535708
v -0.16670822 0.82011326 -0.55544308
v -0.15610471 0.82039536 -0.55605536
v -0.14556775 0.81984931 -0.55613926
v -0.13489477 0.82012229 -0.55674859
v -0.12430819 0.81956973 -0.55683038
v -0.11356574 0.81983359 -0.55743676
v -0.10336739 0.81682131 -0.55594141
v -0.19854297 0.81380782 -0.56243702
v -0.18826794 0.81162680 -0.56146064
v -0.17786020 0.81109326 -0.56155901
v -0.16743261 0.81055712 -0.56165653
v -0.15688904 0.81083822 -0.56228932
v -0.14641183 0.81029556 -0.56238474
v -0.13591477 0.80975031 -0.56247931
v -0.12527196 0.81001837 -0.56310789
v -0.11472527 0.80946660 -0.56320036
v -0.10517901 0.80321898 -0.55955395
v -0.09808702 0.78480669 -0.54790886
v -0.19897368 0.80592686 -0.56961957
v -0.18873815 0.80375547 -0.56863588
v -0.17852248 0.80158668 -0.56765303
v -0.16815463 0.80105394 -0.56776208
v -0.15776694 0.80051860 -0.56787028
v -0.14735940 0.79998065 -0.56797764
v -0.13693201 0.79944010 -0.56808415
v -0.12635906 0.79970846 -0.56873366
v -0.11601767 0.79835118 -0.56829465
v -0.10654963 0.79214046 -0.56459767
v -0.10100996 0.76615901 -0.54761264
v -0.19929073 0.79971366 -0.57784174
v -0.18914082 0.79673436 -0.57629454
v -0.17887884 0.79538751 -0.57585890
v -0.16870266 0.79322834 -0.57486875
v -0.15845060 0.79188279 -0.57443353
v -0.14830420 0.78972753 -0.57344464
v -0.13794648 0.78919168 -0.57356310
v -0.12769441 0.78784613 -0.57312788
v -0.11771322 0.78488898 -0.57158785
v -0.10937067 0.77308759 -0.56397762
v -0.14903531 0.78114677 -0.57991109
v -0.13907357 0.77820105 -0.57835392
v -0.12902622 0.77606323 -0.57736025
v -0.11920157 0.77272594 -0.57552532
v -0.11196686 0.75539372 -0.56387533
v -0.12109128 0.75825583 -0.57758076
v -0.11827119 1.16374391 -0.55878901
v -0.10506739 1.15915240 -0.55823493
v -0.09231998 1.15282418 -0.55689127
v -0.07937275 1.14737418 -0.55594358
v -0.06669155 1.14106899 -0.55460269
v -0.13536693 1.15199109 -0.56709886
v -0.12519146 1.13524878 -0.56088477
v -0.11201591 1.13161022 -0.56074525
v -0.09950280 1.12537262 -0.55939342
v -0.08631780 1.12173078 -0.55925350
v -0.07434405 1.11379447 -0.55709758
v -0.14120959 1.12704916 -0.57049713
v -0.13101998 1.11130448 -0.56457892
v -0.11847729 1.10600430 -0.56363023
v -0.10730977 1.09555094 -0.56020511
v -0.09580366 1.08685696 -0.55761049
v -0.14798769 1.09796364 -0.57138227
v -0.13783337 1.08322464 -0.56577999
v -0.12682854 1.07285985 -0.56229875
v -0.11798077 1.05483922 -0.55502591
v -0.15529402 1.06652034 -0.57048299
v -0.14725517 1.04420702 -0.56089852
v -0.13789819 1.02887072 -0.55478145
v -0.16253557 1.03532874 -0.56904147
v -0.15536946 1.01064032 -0.55795680
v -0.14481717 1.00142173 -0.55481800
v -0.03495669 0.97524171 -0.55604917
v -0.02305813 0.97110408 -0.55554986
v -0.16913231 1.00694796 -0.56840834
v -0.16158725 0.98499831 -0.55846693
v -0.15104322 0.97673030 -0.55573285
v -0.13948516 0.97271107 -0.55524783
v -0.05569945 0.95277808 -0.55631512
v -0.04345203 0.95035970 -0.55671782
v -0.03116678 0.94792817 -0.55711893
v -0.02010892 0.94224232 -0.55573826
v -0.17528622 0.98049142 -0.56820569
v -0.16755150 0.96040321 -0.55900213
v -0.15679724 0.95391637 -0.55714889
v -0.14565845 0.94912723 -0.55621415
v -0.13407837 0.94601606 -0.55619553
v -0.12223982 0.94373073 -0.55663337
v -0.11086147 0.93977399 -0.55615589
v -0.09974160 0.93499144 -0.55522195
v -0.07589424 0.93036155 -0.55609049
v -0.06305327 0.93047476 -0.55788822
v -0.05100663 0.92811707 -0.55831733
v -0.03861640 0.92655560 -0.55919933
v -0.02806076 0.92013782 -0.55735444
v -0.18119497 0.95508928 -0.56801947
v -0.17306480 0.93768382 -0.56005738
v -0.16292613 0.92960247 -0.55725039
v -0.15156468 0.92656276 -0.55724993
v -0.14041333 0.92268496 -0.55678198
v -0.12902350 0.91963538 -0.55678033
v -0.11761475 0.91657922 -0.55677788
v -0.10644448 0.91269485 -0.55630914
v -0.09500736 0.90962882 -0.55630550
v -0.08327501 0.90737127 -0.55676579
v -0.07036174 0.90834764 -0.55908175
v -0.05851589 0.90605062 -0.55953727
v -0.04663221 0.90374044 -0.55999120
v -0.03628142 0.89740762 -0.55812792
v -0.18686180 0.93072896 -0.56787677
v -0.17913146 0.91262909 -0.55930229
v -0.16837830 0.90798319 -0.55836575
v -0.15786254 0.90251328 -0.55695388
v -0.14692873 0.89871113 -0.55649505
v -0.13575752 0.89573300 -0.55651157
v -0.12456739 0.89274830 -0.55652729
v -0.11361467 0.88893957 -0.55606768
v -0.10239617 0.88594500 -0.55608221
v -0.09060828 0.88456557 -0.55704344
v -0.07847896 0.88397398 -0.55847565
v -0.06627396 0.88335607 -0.55990468
v -0.05429691 0.88191086 -0.56085798
v -0.04351538 0.87725510 -0.55992025
v -0.19172285 0.90990667 -0.56926380
v -0.18415386 0.89194061 -0.56054323
v -0.17357933 0.88736140 -0.55960519
v -0.16324112 0.88196237 -0.55818278
v -0.15271388 0.87739960 -0.55724673
v -0.14220556 0.87284341 -0.55631147
v -0.13122460 0.86992687 -0.55634496
v -0.12047995 0.86619051 -0.55589408
v -0.10947062 0.86326410 -0.55592638
v -0.09734574 0.86355778 -0.55788903
v -0.08484268 0.86462194 -0.56033011
v -0.07281225 0.86404646 -0.56180243
v -0.06131122 0.86185107 -0.56230839
v -0.05070831 0.85726199 -0.56136917
v -0.04301733 0.84556750 -0.55610351
v -0.19541518 0.89423623 -0.57327979
v -0.18874043 0.87306910 -0.56243074
v -0.17853248 0.86772450 -0.56099582
v -0.16814604 0.86321527 -0.56005668
v -0.15800429 0.85789370 -0.55862453
v -0.14742990 0.85421654 -0.55818079
v -0.13685551 0.85053938 -0.55773705
v -0.12653527 0.84605316 -0.55680069
v -0.11570672 0.84318505 -0.55684957
v -0.10349388 0.84432272 -0.55935678
v -0.09060247 0.84701928 -0.56284208
v -0.07901969 0.84568375 -0.56386587
v -0.06738016 0.84432849 -0.56488729
v -0.05723842 0.83900691 -0.56345513
v -0.04841597 0.83055439 -0.56006521
v -0.04663333 0.80570387 -0.54640176
v -0.19683701 0.88860938 -0.58311401
v -0.19309397 0.85516481 -0.56451503
v -0.18324098 0.84905993 -0.56256474
v -0.17301425 0.84461080 -0.56162331
v -0.16280643 0.84016825 -0.56068268
v -0.15238337 0.83654372 -0.56024529
v -0.14171669 0.83372732 -0.56030995
v -0.13128417 0.83009950 -0.55987217
v -0.12085165 0.82647167 -0.55943438
v -0.10878717 0.82763350 -0.56200177
v -0.09632773 0.82955085 -0.56506485
v -0.08519043 0.82746367 -0.56562204
v -0.07371492 0.82615173 -0.56667731
v -0.06342198 0.82167958 -0.56573311
v -0.05474439 0.81330486 -0.56229532
v -0.05078272 0.79407002 -0.55188356
v -0.19663197 0.84067632 -0.56836242
v -0.18729866 0.83298929 -0.56536442
v -0.17720326 0.82859041 -0.56441952
v -0.16712678 0.82419810 -0.56347540
v -0.15683614 0.82061961 -0.56304357
v -0.14630295 0.81784507 -0.56312283
v -0.13625485 0.81346263 -0.56217991
v -0.12570275 0.81068151 -0.56225837
v -0.11377715 0.81186422 -0.56488553
v -0.10117731 0.81458904 -0.56852694
v -0.09016513 0.81253623 -0.56910736
v -0.07881582 0.81125446 -0.57019491
v -0.06895351 0.80604834 -0.56873852
v -0.06072007 0.79696720 -0.56474414
v -0.05753401 0.77631690 -0.55314256
v -0.20053240 0.82465612 -0.57094869
v -0.19091885 0.81866193 -0.56895449
v -0.18072279 0.81511633 -0.56852663
v -0.17074927 0.81076440 -0.56757785
v -0.16056267 0.80722209 -0.56715038
v -0.15037607 0.80367978 -0.56672291
v -0.14044038 0.79934100 -0.56577572
v -0.13000286 0.79659516 -0.56586798
v -0.11873692 0.79621239 -0.56751626
v -0.10627813 0.79894970 -0.57123552
v -0.09482302 0.79850116 -0.57287586
v -0.08478329 0.79412620 -0.57192430
v -0.07445481 0.79053456 -0.57149088
v -0.06856612 0.77611474 -0.56382014
v -0.06392201 0.75947655 -0.55461085
v -0.20363025 0.81200140 -0.57540651
v -0.19350040 0.80847882 -0.57498142
v -0.18315854 0.80576167 -0.57508669
v -0.17324069 0.80143367 -0.57413126
v -0.16334176 0.79711224 -0.57317661
v -0.15322137 0.79359296 -0.57275192
v -0.14360065 0.78848913 -0.57126970
v -0.13349917 0.78497642 -0.57084581
v -0.12286018 0.78303510 -0.57147786
v -0.11190514 0.78186302 -0.57263590
v -0.09945499 0.78456677 -0.57642746
v -0.08804203 0.78411460 -0.57810553
v -0.08023248 0.77436570 -0.57346381
v -0.07478659 0.75928469 -0.56514651
v -0.16541621 0.78944509 -0.58069211
v -0.15605155 0.78356487 -0.57865441
v -0.14649489 0.77849245 -0.57715689
v -0.13645962 0.77500277 -0.57673577
v -0.12588899 0.77307608 -0.57738868
v -0.11528054 0.77113623 -0.57804000
v -0.08445021 0.76216438 -0.57784273
v -0.15533221 0.99070282 -0.55941008
v -0.15019763 0.97184903 -0.55190699
v -0.15857174 0.98302049 -0.57004139
v -0.16148346 0.94861322 -0.55383959
v -0.17109469 0.92867353 -0.55710363
v -0.16738012 0.90875613 -0.54848386
v -0.17625623 0.91739627 -0.56492874
v -0.16547787 0.88483085 -0.55139731
v -0.17857542 0.88495844 -0.56276505
v -0.17029783 0.87456351 -0.55929709
v -0.16043001 0.86724658 -0.55764880
v -0.14929913 0.86220003 -0.55736039
v -0.13859221 0.85639828 -0.55661888
v -0.12653424 0.85281923 -0.55723117
v -0.11442349 0.84921157 -0.55783980
v -0.10272790 0.84484395 -0.55799473
v -0.09195059 0.83900406 -0.55724835
v -0.08408650 0.82883318 -0.55380902
v -0.07632798 0.81871951 -0.55037700
v -0.17927337 0.88229702 -0.57522173
v -0.17220079 0.86964422 -0.57030947
v -0.16275223 0.86158421 -0.56818097
v -0.15249408 0.85504560 -0.56697916
v -0.14181355 0.84925815 -0.56623949
v -0.12933788 0.84641814 -0.56734103
v -0.11770700 0.84207581 -0.56751830
v -0.10790643 0.83480510 -0.56585680
v -0.09719071 0.82899858 -0.56511469
v -0.08841088 0.82032090 -0.56254111
v -0.08019420 0.81096832 -0.55951515
v -0.07206551 0.80166342 -0.55649528
v -0.06453516 0.79170270 -0.55302547
v -0.05555288 0.78389535 -0.55092926
v -0.04715136 0.77542266 -0.54838188
v -0.17286765 0.86698061 -0.58273720
v -0.16465049 0.85667704 -0.57916622
v -0.15439079 0.85014247 -0.57795538
v -0.14283341 0.84583020 -0.57815561
v -0.13079362 0.84223168 -0.57882275
v -0.11961307 0.83714845 -0.57854877
v -0.11027420 0.82916253 -0.57640106
v -0.10098812 0.82120522 -0.57425700
v -0.09223723 0.81256275 -0.57164970
v -0.08306551 0.80466741 -0.56951357
v -0.07494660 0.79539224 -0.56644971
v -0.06640686 0.78686419 -0.56385703
v -0.05690230 0.77976365 -0.56219816
v -0.04690652 0.77337209 -0.56100559
v -0.04067474 0.76219402 -0.55657148
v -0.09460853 0.80696606 -0.58211380
v -0.08495128 0.79979256 -0.58042649
v -0.07632611 0.79123776 -0.57779216
v -0.06675684 0.78411192 -0.57611095
v -0.05722276 0.77700515 -0.57443217
v -0.04877354 0.76854570 -0.57181002
v -0.04092835 0.75944327 -0.56872046
v -0.04854746 0.76644666 -0.58454223
v -0.08467909 1.08120028 -0.56419073
v -0.08917904 1.05307024 -0.55338550
v -0.11208817 1.04683936 -0.56023430
v -0.11172632 1.02534619 -0.55281898
v -0.13303295 1.04261122 -0.56801239
v -0.13759784 1.01486070 -0.55675106
v -0.13183929 1.00061373 -0.55329627
v -0.15238389 0.99635670 -0.56052817
v -0.14731008 0.98158482 -0.55660029
v -0.15495278 0.99320833 -0.57336386
v -0.16377988 0.96132951 -0.55867032
v -0.15783503 0.94821251 -0.55554185
v -0.15140458 0.93585004 -0.55284543
v -0.16958273 0.95417768 -0.56862341
v -0.17039316 0.93301588 -0.56020717
v -0.16349484 0.92144948 -0.55790849
v -0.15665404 0.90993885 -0.55561330
v -0.14928726 0.89913751 -0.55375657
v -0.14078226 0.88967109 -0.55277154
v -0.13229164 0.88021861 -0.55178738
v -0.12442046 0.87014748 -0.55037042
v -0.11168000 0.86510923 -0.55242111
v -0.10133104 0.85751270 -0.55273536
v -0.09157995 0.84927661 -0.55261551
v -0.08244831 0.84042186 -0.55206285
v -0.07459871 0.83037165 -0.55064719
v -0.06807428 0.81916780 -0.54837114
v -0.16156416 0.96400291 -0.58964776
v -0.17447549 0.92799366 -0.57126354
v -0.17153779 0.91179954 -0.56581519
v -0.16416992 0.90101541 -0.56393185
v -0.15742593 0.88962300 -0.56160713
v -0.14956361 0.87957264 -0.56017301
v -0.13994471 0.87145864 -0.56007000
v -0.12910682 0.86458906 -0.56085150
v -0.11822579 0.85767765 -0.56163039
v -0.10791830 0.85010916 -0.56196484
v -0.09695818 0.84312106 -0.56273894
v -0.08784811 0.83428723 -0.56218759
v -0.07873804 0.82545340 -0.56163623
v -0.06962797 0.81661957 -0.56108488
v -0.06312845 0.80546423 -0.55877495
v -0.05602662 0.79493806 -0.55690772
v -0.05563811 0.77878938 -0.55065537
v -0.05139130 0.76617876 -0.54704436
v -0.17220986 0.91079244 -0.57947808
v -0.16993480 0.89410070 -0.57348454
v -0.16378650 0.88210313 -0.57067250
v -0.15536945 0.87273417 -0.56967510
v -0.14637442 0.86401190 -0.56913071
v -0.13498122 0.85779272 -0.57039312
v -0.12474397 0.85028017 -0.57074953
v -0.11386403 0.84335156 -0.57155502
v -0.10356206 0.83577625 -0.57190750
v -0.09323134 0.82817306 -0.57225825
v -0.08287185 0.82054197 -0.57260725
v -0.07376897 0.81171512 -0.57205633
v -0.06401622 0.80346523 -0.57195407
v -0.05359202 0.79577140 -0.57229916
v -0.04845310 0.78354548 -0.56906021
v -0.04541482 0.76973506 -0.56448444
v -0.04657777 0.75275566 -0.55723501
v -0.16896903 0.87590392 -0.58057177
v -0.16057079 0.86655929 -0.57956666
v -0.15041815 0.85911661 -0.57994588
v -0.13844641 0.85351313 -0.58170550
v -0.13002659 0.84414758 -0.58069909
v -0.11917651 0.83722965 -0.58153293
v -0.10828328 0.83026989 -0.58236416
v -0.09734691 0.82326830 -0.58319278
v -0.04069496 0.78875206 -0.58821030
v -0.03951564 0.77319588 -0.58217691
f 4 5 10
f 5 6 11
f 6 7 12
f 7 8 13
f 8 9 14
f 10 11 18
f 11 12 19
f 12 13 20
f 13 14 21
f 14 15 22
f 15 16 23
f 18 19 26
f 19 20 27
f 20 21 28
f 21 22 29
f 22 23 30
f 23 24 31
f 25 26 32
f 26 27 33
f 34 35 44
f 35 36 45
f 36 37 46
f 37 38 47
f 38 39 48
f 39 40 49
f 40 41 50
f 41 42 51
f 42 43 52
f 44 45 55
f 45 46 56
f 46 47 57
f 47 48 58
f 48 49 59
f 49 50 60
f 50 51 61
f 51 52 62
f 52 53 63
f 53 54 64
f 55 56 66
f 56 57 67
f 57 58 68
f 58 59 69
f 59 60 70
f 60 61 71
f 61 62 72
f 62 63 73
f 63 64 74
f 64 65 75
f 71 72 76
f 72 73 77
f 73 74 78
f 74 75 79
f 79 80 81
f 1 3 2
f 3 9 8
f 5 11 10
f 6 12 11
f 7 13 12
f 8 14 13
f 9 15 14
f 10 18 17
f 11 19 18
f 12 20 19
f 13 21 20
f 14 22 21
f 15 23 22
f 18 26 25
f 19 27 26
f 20 28 27
f 21 29 28
f 22 30 29
f 23 31 30
f 26 33 32
f 35 45 44
f 36 46 45
f 37 47 46
f 38 48 47
f 39 49 48
f 40 50 49
f 41 51 50
f 42 52 51
f 43 53 52
f 45 56 55
f 46 57 56
f 47 58 57
f 48 59 58
f 49 60 59
f 50 61 60
f 51 62 61
f 52 63 62
f 53 64 63
f 56 67 66
f 57 68 67
f 58 69 68
f 59 70 69
f 60 71 70
f 61 72 71
f 62 73 72
f 63 74 73
f 64 75 74
f 74 79 78
f 75 80 79
f 82 83 88
f 83 84 89
f 84 85 90
f 85 86 91
f 87 88 93
f 88 89 94
f 89 90 95
f 90 91 96
f 91 92 97
f 93 94 98
f 94 95 99
f 95 96 100
f 96 97 101
f 98 99 102
f 99 100 103
f 102 103 105
f 103 104 106
f 105 106 110
f 106 107 111
f 108 109 115
f 110 111 118
f 111 112 119
f 114 115 127
f 115 116 128
f 116 117 129
f 118 119 131
f 119 120 132
f 120 121 133
f 121 122 134
f 122 123 135
f 123 124 136
f 124 125 137
f 126 127 140
f 127 128 141
f 128 129 142
f 129 130 143
f 131 132 145
f 132 133 146
f 133 134 147
f 134 135 148
f 135 136 149
f 136 137 150
f 137 138 151
f 138 139 152
f 139 140 153
f 140 141 154
f 141 142 155
f 142 143 156
f 143 144 157
f 145 146 159
f 146 147 160
f 147 148 161
f 148 149 162
f 149 150 163
f 150 151 164
f 151 152 165
f 153 154 167
f 154 155 168
f 155 156 169
f 156 157 170
f 157 158 171
f 159 160 174
f 160 161 175
f 161 162 176
f 162 163 177
f 163 164 178
f 164 165 179
f 165 166 180
f 166 167 181
f 167 168 182
f 168 169 183
f 169 170 184
f 170 171 185
f 171 172 186
f 172 173 187
f 174 175 190
f 175 176 191
f 176 177 192
f 177 178 193
f 178 179 194
f 179 180 195
f 180 181 196
f 181 182 197
f 182 183 198
f 183 184 199
f 184 185 200
f 185 186 201
f 186 187 202
f 187 188 203
f 188 189 204
f 191 192 206
f 192 193 207
f 193 194 208
f 194 195 209
f 195 196 210
f 196 197 211
f 197 198 212
f 198 199 213
f 199 200 214
f 200 201 215
f 201 202 216
f 202 203 217
f 203 204 218
f 204 205 219
f 206 207 221
f 207 208 222
f 208 209 223
f 209 210 224
f 210 211 225
f 211 212 226
f 212 213 227
f 213 214 228
f 214 215 229
f 215 216 230
f 216 217 231
f 217 218 232
f 218 219 233
f 219 220 234
f 221 222 236
f 222 223 237
f 223 224 238
f 224 225 239
f 225 226 240
f 226 227 241
f 227 228 242
f 228 229 243
f 229 230 244
f 230 231 245
f 231 232 246
f 232 233 247
f 233 234 248
f 234 235 249
f 240 241 250
f 241 242 251
f 242 243 252
f 243 244 253
f 244 245 254
f 245 246 255
f 248 249 256
f 82 88 87
f 83 89 88
f 84 90 89
f 85 91 90
f 86 92 91
f 88 94 93
f 89 95 94
f 90 96 95
f 91 97 96
f 94 99 98
f 95 100 99
f 96 101 100
f 99 103 102
f 103 106 105
f 106 111 110
f 107 112 111
f 108 115 114
f 109 116 115
f 111 119 118
f 112 120 119
f 113 121 120
f 114 127 126
f 115 128 127
f 116 129 128
f 117 130 129
f 119 132 131
f 120 133 132
f 121 134 133
f 122 135 134
f 123 136 135
f 124 137 136
f 125 138 137
f 126 140 139
f 127 141 140
f 128 142 141
f 129 143 142
f 130 144 143
f 132 146 145
f 133 147 146
f 134 148 147
f 135 149 148
f 136 150 149
f 137 151 150
f 138 152 151
f 139 153 152
f 140 154 153
f 141 155 154
f 142 156 155
f 143 157 156
f 144 158 157
f 146 160 159
f 147 161 160
f 148 162 161
f 149 163 162
f 150 164 163
f 151 165 164
f 152 166 165
f 154 168 167
f 155 169 168
f 156 170 169
f 157 171 170
f 158 172 171
f 160 175 174
f 161 176 175
f 162 177 176
f 163 178 177
f 164 179 178
f 165 180 179
f 166 181 180
f 167 182 181
f 168 183 182
f 169 184 183
f 170 185 184
f 171 186 185
f 172 187 186
f 173 188 187
f 175 191 190
f 176 192 191
f 177 193 192
f 178 194 193
f 179 195 194
f 180 196 195
f 181 197 196
f 182 198 197
f 183 199 198
f 184 200 199
f 185 201 200
f 186 202 201
f 187 203 202
f 188 204 203
f 192 207 206
f 193 208 207
f 194 209 208
f 195 210 209
f 196 211 210
f 197 212 211
f 198 213 212
f 199 214 213
f 200 215 214
f 201 216 215
f 202 217 216
f 203 218 217
f 204 219 218
f 205 220 219
f 207 222 221
f 208 223 222
f 209 224 223
f 210 225 224
f 211 226 225
f 212 227 226
f 213 228 227
f 214 229 228
f 215 230 229
f 216 231 230
f 217 232 231
f 218 233 232
f 219 234 233
f 220 235 234
f 222 237 236
f 223 238 237
f 224 239 238
f 225 240 239
f 226 241 240
f 227 242 241
f 228 243 242
f 229 244 243
f 230 245 244
f 231 246 245
f 232 247 246
f 233 248 247
f 234 249 248
f 242 252 251
f 243 253 252
f 244 254 253
f 245 255 254
f 257 258 259
f 261 262 263
f 265 266 276
f 266 267 277
f 267 268 278
f 268 269 279
f 269 270 280
f 270 271 281
f 271 272 282
f 272 273 283
f 273 274 284
f 277 278 291
f 278 279 292
f 279 280 293
f 280 281 294
f 281 282 295
f 282 283 296
f 283 284 297
f 284 285 298
f 285 286 299
f 286 287 300
f 287 288 301
f 299 300 306
f 300 301 307
f 301 302 308
f 302 303 309
f 303 304 310
f 304 305 311
f 311 312 313
f 258 260 259
f 264 266 265
f 266 277 276
f 267 278 277
f 268 279 278
f 269 280 279
f 270 281 280
f 271 282 281
f 272 283 282
f 273 284 283
f 274 285 284
f 275 286 285
f 279 293 292
f 280 294 293
f 281 295 294
f 282 296 295
f 283 297 296
f 284 298 297
f 285 299 298
f 286 300 299
f 287 301 300
f 288 302 301
f 289 303 302
f 290 304 303
f 301 308 307
f 302 309 308
f 303 310 309
f 304 311 310
f 305 312 311
f 314 315 316
f 316 317 319
f 319 320 321
f 321 322 323
f 324 325 327
f 325 326 328
f 327 328 341
f 328 329 342
f 329 330 343
f 330 331 344
f 343 344 359
f 344 345 360
f 345 346 361
f 346 347 362
f 347 348 363
f 348 349 364
f 349 350 365
f 350 351 366
f 351 352 367
f 352 353 368
f 353 354 369
f 354 355 370
f 355 356 371
f 356 357 372
f 361 362 376
f 362 363 377
f 363 364 378
f 364 365 379
f 365 366 380
f 366 367 381
f 367 368 382
f 368 369 383
f 373 374 384
f 374 375 385
f 316 319 318
f 320 322 321
f 322 324 323
f 325 328 327
f 326 329 328
f 328 342 341
f 329 343 342
f 330 344 343
f 331 345 344
f 332 346 345
f 333 347 346
f 334 348 347
f 335 349 348
f 336 350 349
f 337 351 350
f 338 352 351
f 339 353 352
f 340 354 353
f 344 360 359
f 345 361 360
f 346 362 361
f 347 363 362
f 348 364 363
f 349 365 364
f 350 366 365
f 351 367 366
f 352 368 367
f 353 369 368
f 354 370 369
f 355 371 370
f 356 372 371
f 357 373 372
f 358 374 373
