v 0.04442941 0.87420172 -0.55138364
v 0.05587636 0.88913117 -0.55982998
v 0.03414686 0.85380770 -0.55160991
v 0.04502467 0.86453185 -0.55758998
v 0.05658517 0.88185549 -0.56779570
v 0.06837571 0.89670432 -0.57637268
v 0.07928634 0.89752925 -0.57591837
v 0.09038259 0.90000406 -0.57651911
v 0.10144585 0.90165393 -0.57658689
v 0.11265178 0.90412873 -0.57717767
v 0.12380477 0.90577860 -0.57723731
v 0.13524310 0.90907834 -0.57834295
v 0.02442692 0.84096796 -0.55634794
v 0.03495072 0.84835207 -0.56029726
v 0.04569776 0.85655664 -0.56477125
v 0.05696667 0.86968394 -0.57246753
v 0.06779007 0.87296577 -0.57366495
v 0.07847219 0.87378623 -0.57324036
v 0.08934155 0.87624760 -0.57388866
v 0.10017711 0.87788851 -0.57399509
v 0.11105256 0.87952942 -0.57409790
v 0.12185432 0.88034988 -0.57366246
v 0.13279956 0.88199079 -0.57375893
v 0.14365117 0.88281125 -0.57331897
v 0.15538357 0.88855444 -0.57606870
v 0.16817624 0.89922038 -0.58199186
v 0.01467014 0.81597812 -0.55260053
v 0.02509632 0.83107372 -0.56190197
v 0.03551068 0.83719356 -0.56511124
v 0.04618606 0.84535334 -0.56968165
v 0.05684263 0.85024921 -0.57203803
v 0.06729624 0.85106518 -0.57164317
v 0.07776979 0.85188116 -0.57124651
v 0.08834774 0.85351312 -0.57139430
v 0.09896558 0.85514507 -0.57153847
v 0.10951889 0.85596105 -0.57113457
v 0.12020652 0.85759301 -0.57127241
v 0.13080968 0.85840899 -0.57086398
v 0.14143279 0.85922496 -0.57045374
v 0.15222012 0.86085692 -0.57058253
v 0.16335584 0.86412083 -0.57178756
v 0.17539245 0.87146464 -0.57568048
v 0.18726013 0.87717648 -0.57848088
v 0.19889907 0.88125637 -0.58019417
v 0.21083184 0.88615224 -0.58243472
v 0.31058832 0.86248888 -0.55731663
v 0.42974874 0.89104811 -0.56588905
v 0.01544077 0.80947095 -0.56011386
v 0.02579338 0.82245494 -0.56818100
v 0.03605770 0.82610669 -0.56978255
v 0.04629828 0.82772969 -0.56997894
v 0.05657874 0.82935269 -0.57017171
v 0.06683375 0.83016419 -0.56980387
v 0.07710870 0.83097569 -0.56943423
v 0.08748887 0.83259869 -0.56961795
v 0.09790892 0.83422169 -0.56979805
v 0.10826363 0.83503319 -0.56942117
v 0.11875347 0.83665619 -0.56959494
v 0.12915804 0.83746769 -0.56921352
v 0.13958254 0.83827919 -0.56883030
v 0.15017209 0.83990219 -0.56899502
v 0.16064644 0.84071369 -0.56860727
v 0.17147081 0.84314819 -0.56931360
v 0.18218000 0.84477119 -0.56946747
v 0.19348399 0.84882868 -0.57125611
v 0.20469274 0.85207468 -0.57249047
v 0.21598126 0.85532068 -0.57371760
v 0.22713465 0.85775518 -0.57439407
v 0.23857271 0.86100118 -0.57560762
v 0.25009054 0.86424718 -0.57681393
v 0.26119854 0.86587018 -0.57693160
v 0.27234642 0.86749318 -0.57704564
v 0.28300471 0.86749318 -0.57607828
v 0.29338829 0.86668168 -0.57457293
v 0.30289789 0.86343568 -0.57145813
v 0.30230967 0.83259869 -0.55012046
v 0.41321044 0.87236218 -0.56763813
v 0.42313984 0.87073918 -0.56561107
v 0.00607205 0.77554744 -0.54905746
v 0.01608519 0.79693351 -0.56330435
v 0.02620662 0.80540723 -0.56839080
v 0.03619324 0.80621425 -0.56805631
v 0.04626910 0.80823181 -0.56857159
v 0.05633865 0.80944234 -0.56851553
v 0.06640503 0.81024936 -0.56817380
v 0.07652941 0.81145989 -0.56811277
v 0.08664066 0.81226691 -0.56776696
v 0.09677186 0.81307393 -0.56741935
v 0.10702901 0.81468798 -0.56763222
v 0.11721005 0.81549500 -0.56728009
v 0.12747402 0.81670553 -0.56720638
v 0.13769993 0.81751255 -0.56685018
v 0.14801873 0.81872308 -0.56677149
v 0.15844538 0.82033712 -0.56696898
v 0.16899483 0.82235468 -0.56744128
v 0.17959414 0.82437223 -0.56790905
v 0.19005751 0.82558276 -0.56781725
v 0.20064867 0.82719681 -0.56799980
v 0.21127971 0.82881085 -0.56817874
v 0.22216633 0.83123191 -0.56890639
v 0.23311277 0.83365298 -0.56962861
v 0.24459031 0.83768808 -0.57144646
v 0.25567633 0.84010915 -0.57215601
v 0.26656660 0.84172319 -0.57231142
v 0.27696566 0.84172319 -0.57136758
v 0.28764024 0.84253021 -0.57097065
v 0.29605085 0.83688106 -0.56620390
v 0.29752634 0.81267042 -0.54891259
v 0.38610221 0.83042489 -0.55345539
v 0.40136916 0.84091617 -0.55950460
v 0.41768567 0.85302149 -0.56660239
v 0.00682843 0.76883605 -0.55588604
v 0.01665358 0.78167673 -0.56428876
v 0.02658124 0.78809708 -0.56803494
v 0.03640914 0.78889962 -0.56772384
v 0.04623348 0.78930089 -0.56712262
v 0.05609629 0.79010343 -0.56680836
v 0.06601251 0.79130725 -0.56677970
v 0.07595863 0.79251106 -0.56674833
v 0.08589123 0.79331360 -0.56642774
v 0.09589219 0.79451742 -0.56639139
v 0.10586966 0.79531996 -0.56606672
v 0.11586706 0.79612250 -0.56574024
v 0.12594779 0.79732632 -0.56569666
v 0.13599005 0.79812886 -0.56536611
v 0.14627233 0.80013522 -0.56588513
v 0.15644778 0.80133903 -0.56583295
v 0.16673646 0.80294412 -0.56606093
v 0.17706503 0.80454920 -0.56628530
v 0.18743347 0.80615429 -0.56650605
v 0.19784180 0.80775938 -0.56672318
v 0.20818674 0.80896319 -0.56665562
v 0.21856160 0.81016700 -0.56658533
v 0.22896636 0.81137082 -0.56651234
v 0.23963748 0.81337718 -0.56699607
v 0.25035845 0.81538353 -0.56747527
v 0.26112928 0.81738989 -0.56794995
v 0.27168360 0.81859370 -0.56786338
v 0.28240599 0.82019879 -0.56805201
v 0.28644028 0.80294412 -0.55519642
v 0.38204662 0.81538353 -0.55552304
v 0.39603648 0.82340896 -0.56006233
v 0.41180963 0.83464456 -0.56676339
v 0.40715896 0.80495048 -0.54569205
v -0.00191832 0.75297378 -0.55673942
v 0.00754822 0.75895927 -0.56030443
v 0.01715536 0.76454572 -0.56356173
v 0.02680451 0.76733894 -0.56475059
v 0.03644775 0.76853604 -0.56476019
v 0.04616873 0.77053120 -0.56535264
v 0.05588177 0.77172830 -0.56535591
v 0.06562472 0.77292539 -0.56535646
v 0.07535872 0.77372346 -0.56506288
v 0.08515651 0.77492055 -0.56505846
v 0.09498421 0.77611765 -0.56505132
v 0.10478800 0.77691572 -0.56475141
v 0.11467053 0.77811281 -0.56473930
v 0.12451919 0.77891088 -0.56443531
v 0.13438778 0.77970894 -0.56412951
v 0.14442384 0.78130507 -0.56439841
v 0.15457853 0.78330023 -0.56495149
v 0.16461561 0.78449733 -0.56492535
v 0.17486003 0.78649249 -0.56547029
v 0.18496689 0.78768958 -0.56543781
v 0.19510367 0.78888668 -0.56540262
v 0.20527036 0.79008378 -0.56536472
v 0.21546696 0.79128087 -0.56532410
v 0.22557983 0.79207894 -0.56499613
v 0.23583127 0.79327604 -0.56495054
v 0.24611262 0.79447313 -0.56490223
v 0.25680968 0.79686733 -0.56570103
v 0.26689864 0.79726636 -0.56508028
v 0.27713613 0.79806442 -0.56474101
v 0.28265632 0.78569442 -0.55509662
v 0.35529276 0.79447313 -0.55499286
v 0.36705257 0.79846345 -0.55687499
v 0.37834683 0.80125668 -0.55791453
v 0.39145152 0.80764120 -0.56144429
v 0.40630286 0.81721797 -0.56717509
v 0.40390321 0.79247797 -0.54910616
v -0.00114860 0.74478046 -0.56215775
v 0.00824355 0.74795480 -0.56370084
v 0.01771545 0.75112915 -0.56523670
v 0.02722409 0.75311311 -0.56587089
v 0.03668594 0.75311311 -0.56501212
v 0.04624504 0.75470028 -0.56534229
v 0.05584402 0.75628745 -0.56566884
v 0.06544860 0.75747783 -0.56569544
v 0.07504383 0.75827142 -0.56542344
v 0.08461473 0.75866821 -0.56485421
v 0.09414637 0.75866821 -0.56398911
v 0.10384069 0.75985859 -0.56400756
v 0.11350570 0.76065218 -0.56372923
v 0.12319065 0.76144576 -0.56344910
v 0.13296473 0.76263614 -0.56346031
v 0.14276872 0.76382652 -0.56346881
v 0.15260262 0.76501690 -0.56347460
v 0.16255056 0.76660407 -0.56376948
v 0.17253839 0.76819124 -0.56406074
v 0.18256609 0.76977842 -0.56434837
v 0.19253459 0.77096880 -0.56434194
v 0.20253300 0.77215917 -0.56433280
v 0.21245226 0.77295276 -0.56403140
v 0.22250550 0.77414314 -0.56401727
v 0.23282672 0.77612710 -0.56457772
v 0.24282574 0.77692069 -0.56426907
v 0.25310271 0.77850786 -0.56453409
v 0.26301759 0.77890466 -0.56393364
v 0.27308142 0.77969824 -0.56361911
v 0.27971020 0.77096880 -0.55642974
v 0.28880061 0.76938162 -0.55440691
v 0.29923649 0.77136559 -0.55495695
v 0.30860982 0.77057200 -0.55350732
v 0.31993000 0.77453993 -0.55547431
v 0.33050547 0.77652390 -0.55601167
v 0.34130465 0.77890466 -0.55682818
v 0.35216366 0.78128541 -0.55763925
v 0.36326633 0.78406296 -0.55872765
v 0.37443879 0.78684052 -0.55980972
v 0.38684390 0.79199882 -0.56257656
v 0.40255934 0.80350582 -0.56983403
v 0.40042750 0.77969824 -0.55206097
v -0.00038779 0.73821013 -0.56870273
v 0.00895856 0.73978835 -0.56907019
v 0.01832528 0.74057746 -0.56882793
v 0.02777092 0.74294478 -0.56979425
v 0.03723693 0.74452299 -0.57015085
v 0.04659450 0.74373389 -0.56869367
v 0.05602124 0.74412844 -0.56814202
v 0.06559671 0.74610121 -0.56879262
v 0.07510301 0.74689032 -0.56853769
v 0.08453993 0.74689032 -0.56768118
v 0.09397685 0.74689032 -0.56682467
v 0.10335914 0.74649576 -0.56566918
v 0.11279108 0.74649576 -0.56481312
v 0.12228761 0.74689032 -0.56425514
v 0.13165495 0.74649576 -0.56310101
v 0.14131059 0.74767942 -0.56313646
v 0.15107571 0.74925764 -0.56346591
v 0.16079616 0.75044130 -0.56349548
v 0.17054652 0.75162496 -0.56352233
v 0.18032680 0.75280862 -0.56354647
v 0.19033598 0.75478139 -0.56415771
v 0.20018604 0.75596505 -0.56417552
v 0.21017549 0.75754327 -0.56448461
v 0.22009036 0.75872693 -0.56449653
v 0.23015459 0.76030514 -0.56479884
v 0.23988542 0.76069970 -0.56421959
v 0.25001445 0.76227791 -0.56451601
v 0.25978019 0.76267247 -0.56393359
v 0.26913776 0.76188336 -0.56247641
v 0.27789794 0.75951604 -0.55985770
v 0.28734504 0.75912148 -0.55869632
v 0.29770817 0.76109425 -0.55927544
v 0.30732455 0.76109425 -0.55840264
v 0.31710524 0.76148881 -0.55781886
v 0.32740377 0.76306702 -0.55809990
v 0.33774217 0.76464524 -0.55837732
v 0.34847898 0.76701256 -0.55922646
v 0.35964409 0.77016899 -0.56064460
v 0.37032128 0.77214176 -0.56119521
v 0.38182518 0.77569274 -0.56288653
v 0.39561001 0.78358382 -0.56771416
v 0.39734317 0.76780167 -0.55539934
v 0.00036795 0.73127436 -0.57488580
v 0.00968104 0.73284362 -0.57527426
v 0.01904417 0.73480519 -0.57596661
v 0.02845715 0.73676677 -0.57665444
v 0.03789984 0.73833603 -0.57703113
v 0.04723168 0.73755140 -0.57556730
v 0.05660379 0.73755140 -0.57471667
v 0.06601100 0.73794371 -0.57417129
v 0.07530794 0.73715908 -0.57271061
v 0.08453988 0.73598214 -0.57094741
v 0.09384200 0.73558982 -0.56979470
v 0.10307912 0.73480519 -0.56833946
v 0.11241634 0.73480519 -0.56749200
v 0.12175355 0.73480519 -0.56664454
v 0.13109077 0.73480519 -0.56579707
v 0.14057794 0.73558982 -0.56555287
v 0.15008505 0.73637445 -0.56530685
v 0.15969704 0.73755140 -0.56535975
v 0.16933894 0.73872834 -0.56540994
v 0.17901076 0.73990528 -0.56545741
v 0.18871249 0.74108223 -0.56550216
v 0.19844412 0.74225917 -0.56554420
v 0.20820567 0.74343612 -0.56558352
v 0.21799713 0.74461306 -0.56562013
v 0.22781850 0.74579000 -0.56565403
v 0.23754496 0.74657463 -0.56538811
v 0.24742116 0.74775158 -0.56541703
v 0.25705769 0.74814389 -0.56485083
v 0.26642462 0.74775158 -0.56369224
v 0.27621588 0.74853620 -0.56342043
v 0.28587733 0.74892852 -0.56285198
v 0.29585823 0.75010546 -0.56287140
v 0.30459125 0.74814389 -0.56053661
v 0.31442738 0.74892852 -0.56026073
v 0.32428345 0.74971315 -0.55998304
v 0.33450882 0.75128241 -0.56028870
v 0.34495373 0.75324398 -0.56088287
v 0.35581779 0.75599018 -0.56205586
v 0.36637237 0.75795175 -0.56264008
v 0.37756067 0.76109027 -0.56409207
v 0.38942753 0.76540573 -0.56640778
v 0.39383427 0.75520555 -0.55798856
v 0.06655919 0.73139130 -0.58069960
v 0.07570396 0.72944092 -0.57830497
v 0.08479888 0.72749055 -0.57591486
v 0.09394485 0.72632032 -0.57414597
v 0.10300548 0.72476002 -0.57207190
v 0.11208664 0.72358979 -0.57030889
v 0.12126872 0.72319972 -0.56916258
v 0.13051122 0.72319972 -0.56832372
v 0.13982910 0.72358979 -0.56779094
v 0.14931768 0.72476002 -0.56786852
v 0.15875081 0.72554017 -0.56763821
v 0.16829423 0.72671040 -0.56771082
v 0.17777224 0.72749055 -0.56747644
v 0.18727018 0.72827070 -0.56724025
v 0.19668278 0.72866077 -0.56669887
v 0.20632590 0.72983100 -0.56676243
v 0.21588367 0.73061115 -0.56652081
v 0.22546138 0.73139130 -0.56627738
v 0.23518426 0.73256153 -0.56633370
v 0.24493705 0.73373175 -0.56638730
v 0.25471975 0.73490198 -0.56643819
v 0.26411181 0.73490198 -0.56558576
v 0.27466524 0.73802258 -0.56713134
v 0.28439748 0.73880273 -0.56687388
v 0.29414967 0.73958288 -0.56661461
v 0.30360155 0.73958288 -0.56575674
v 0.31239298 0.73802258 -0.56370710
v 0.32182491 0.73802258 -0.56285105
v 0.33160701 0.73880273 -0.56258906
v 0.34176919 0.74036303 -0.56291844
v 0.35215630 0.74231341 -0.56354033
v 0.36278331 0.74465386 -0.56445338
v 0.37327511 0.74660424 -0.56506576
v 0.38481680 0.75050499 -0.56714750
v 0.39030839 0.74270349 -0.56039051
v 0.09424062 0.71866038 -0.57963254
v 0.10319891 0.71672120 -0.57723235
v 0.11216818 0.71516986 -0.57514859
v 0.12109758 0.71361851 -0.57306845
v 0.13012868 0.71284284 -0.57161393
v 0.13921564 0.71245500 -0.57047176
v 0.14837339 0.71245500 -0.56964058
v 0.15770265 0.71323067 -0.56942869
v 0.16705185 0.71400635 -0.56921499
v 0.17632527 0.71439418 -0.56869074
v 0.18560865 0.71478202 -0.56816559
v 0.19490201 0.71516986 -0.56763953
v 0.20431602 0.71594553 -0.56741995
v 0.21374997 0.71672120 -0.56719856
v 0.22320386 0.71749687 -0.56697535
v 0.23280332 0.71866038 -0.56705636
v 0.24243270 0.71982389 -0.56713465
v 0.25209199 0.72098740 -0.56721023
v 0.26178119 0.72215091 -0.56728309
v 0.27266491 0.72641710 -0.56978693
v 0.28200213 0.72641710 -0.56893947
v 0.29165044 0.72719278 -0.56869862
v 0.30099763 0.72719278 -0.56785025
v 0.31017930 0.72680494 -0.56669949
v 0.31969200 0.72719278 -0.56615352
v 0.32939016 0.72796845 -0.56590815
v 0.33892779 0.72835628 -0.56535992
v 0.34903177 0.72990763 -0.56571256
v 0.35936607 0.73184681 -0.56636172
v 0.36935936 0.73301032 -0.56640698
v 0.38098587 0.73727652 -0.56884340
v 0.38614931 0.72913196 -0.56170886
v 0.11224082 0.70679918 -0.57989021
v 0.12104754 0.70487120 -0.57748130
v 0.12973320 0.70255761 -0.57476146
v 0.13866380 0.70178642 -0.57330707
v 0.14765563 0.70140082 -0.57216904
v 0.15655133 0.70062963 -0.57071781
v 0.16551823 0.70024403 -0.56958204
v 0.17447516 0.69985844 -0.56844718
v 0.18372547 0.70062963 -0.56825144
v 0.19288962 0.70101523 -0.56774161
v 0.20217482 0.70178642 -0.56754270
v 0.21147997 0.70255761 -0.56734199
v 0.22080505 0.70332881 -0.56713947
v 0.23015007 0.70410000 -0.56693514
v 0.23977709 0.70564239 -0.56734905
v 0.24917197 0.70641358 -0.56714019
v 0.25900977 0.70834157 -0.56785689
v 0.26933538 0.71142634 -0.56949507
v 0.27943881 0.71373993 -0.57050958
v 0.28897825 0.71451112 -0.57028760
v 0.29821577 0.71451112 -0.56944919
v 0.30745328 0.71451112 -0.56861078
v 0.31686170 0.71489672 -0.56807878
v 0.32610420 0.71489672 -0.56723991
v 0.33588933 0.71605351 -0.56731755
v 0.34551851 0.71682470 -0.56708743
v 0.35554933 0.71836709 -0.56746469
v 0.36522836 0.71913828 -0.56723005
v 0.37633306 0.72260866 -0.56911944
v 0.38217660 0.71605351 -0.56311644
v 0.13840457 0.69272740 -0.57726864
v 0.14684172 0.69004390 -0.57421797
v 0.15529564 0.68774375 -0.57149220
v 0.16414748 0.68736040 -0.57036237
v 0.17308588 0.68736040 -0.56955111
v 0.18202428 0.68736040 -0.56873985
v 0.19085618 0.68697704 -0.56761183
v 0.19990109 0.68736040 -0.56711732
v 0.20895597 0.68774375 -0.56662190
v 0.21826374 0.68889383 -0.56675635
v 0.22747497 0.68966054 -0.56657315
v 0.23696901 0.69119397 -0.56701711
v 0.24623010 0.69196069 -0.56682939
v 0.25579393 0.69349412 -0.56726702
v 0.26569041 0.69579427 -0.56832728
v 0.27579808 0.69847777 -0.56969479
v 0.28566284 0.70039456 -0.57043152
v 0.29557744 0.70231135 -0.57116373
v 0.30537558 0.70384478 -0.57158009
v 0.31435703 0.70346142 -0.57043850
v 0.32332851 0.70307806 -0.56929782
v 0.33265259 0.70346142 -0.56877797
v 0.34180037 0.70346142 -0.56794770
v 0.35133066 0.70422813 -0.56773554
v 0.36127336 0.70576157 -0.56813878
v 0.37185961 0.70844507 -0.56946286
v 0.37797908 0.70269470 -0.56401123
v 0.37233338 0.67585966 -0.54167465
v 0.15636948 0.68525108 -0.58078292
v 0.16395351 0.67953430 -0.57513094
v 0.17216349 0.67686647 -0.57206942
v 0.18081329 0.67610424 -0.57062253
v 0.18944316 0.67534200 -0.56917745
v 0.19838877 0.67572312 -0.56869644
v 0.20722747 0.67572312 -0.56789423
v 0.21606617 0.67572312 -0.56709201
v 0.22490487 0.67572312 -0.56628980
v 0.23413908 0.67686647 -0.56644442
v 0.24326637 0.67762871 -0.56627783
v 0.25255542 0.67877206 -0.56642747
v 0.26216795 0.68067766 -0.56720956
v 0.27167856 0.68220213 -0.56767000
v 0.28122905 0.68372661 -0.56812682
v 0.29065768 0.68486996 -0.56826379
v 0.30011622 0.68601332 -0.56839805
v 0.30960467 0.68715667 -0.56852959
v 0.31912303 0.68830003 -0.56865842
v 0.32903467 0.69020562 -0.56941337
v 0.33843615 0.69096786 -0.56922189
v 0.34785758 0.69173009 -0.56902861
v 0.35729894 0.69249233 -0.56883351
v 0.36655861 0.69287345 -0.56832400
v 0.37396874 0.68982450 -0.56500417
v 0.36923804 0.66505180 -0.54392441
v 0.18214514 0.67440515 -0.58048873
v 0.18908709 0.66758532 -0.57382138
v 0.19719716 0.66531204 -0.57107287
v 0.20536469 0.66341765 -0.56865454
v 0.21397145 0.66303877 -0.56753797
v 0.22282275 0.66341765 -0.56707002
v 0.23168401 0.66379653 -0.56660116
v 0.24041802 0.66379653 -0.56580845
v 0.24957867 0.66493316 -0.56598323
v 0.25876922 0.66606980 -0.56615529
v 0.26829404 0.66796420 -0.56696783
v 0.27755439 0.66910084 -0.56713356
v 0.28684465 0.67023748 -0.56729657
v 0.29616481 0.67137411 -0.56745687
v 0.30534277 0.67213187 -0.56729468
v 0.31454067 0.67288963 -0.56713067
v 0.32394060 0.67402627 -0.56728373
v 0.33337044 0.67516291 -0.56743408
v 0.34302225 0.67667842 -0.56789968
v 0.35271395 0.67819394 -0.56836167
v 0.36183943 0.67857282 -0.56786883
v 0.37014681 0.67743618 -0.56610862
v 0.36634015 0.65470342 -0.54632983
v 0.20819166 0.66627631 -0.58238742
v 0.21455694 0.65874351 -0.57501169
v 0.22238238 0.65610703 -0.57192214
v 0.23000539 0.65309390 -0.56851107
v 0.23851204 0.65271726 -0.56739909
v 0.24729395 0.65309390 -0.56694193
v 0.25652863 0.65460047 -0.56746337
v 0.26549801 0.65535375 -0.56732910
v 0.27464492 0.65648367 -0.56751861
v 0.28382173 0.65761359 -0.56770541
v 0.29269337 0.65799023 -0.56724010
v 0.30192003 0.65912015 -0.56742237
v 0.31099910 0.65987343 -0.56727814
v 0.32046309 0.66137999 -0.56777878
v 0.32996697 0.66288655 -0.56827579
v 0.33951073 0.66439311 -0.56876918
v 0.34909437 0.66589967 -0.56925895
v 0.35811058 0.66627631 -0.56878053
v 0.36672192 0.66589967 -0.56765905
v 0.36342849 0.64443118 -0.54858366
v 0.23310196 0.65595033 -0.58222397
v 0.23935136 0.64921111 -0.57545764
v 0.24699450 0.64659030 -0.57235317
v 0.25471586 0.64434390 -0.56958600
v 0.26329533 0.64434390 -0.56880731
v 0.27203278 0.64471830 -0.56835868
v 0.28094315 0.64546710 -0.56823875
v 0.29004142 0.64659030 -0.56844616
v 0.29916959 0.64771351 -0.56865086
v 0.30850559 0.64921111 -0.56918109
v 0.31788147 0.65070871 -0.56970770
v 0.32748512 0.65258072 -0.57055804
v 0.33694575 0.65407832 -0.57107695
v 0.34624841 0.65520152 -0.57126582
v 0.35517529 0.65557592 -0.57079999
v 0.36348866 0.65482712 -0.56935667
v 0.36071589 0.63460948 -0.55101098
v 0.26721304 0.64830561 -0.58351483
v 0.27336313 0.64235102 -0.57737439
v 0.28115070 0.64049021 -0.57492312
v 0.28872008 0.63825724 -0.57214277
v 0.29726964 0.63825724 -0.57136680
v 0.30671080 0.64011805 -0.57225435
v 0.31675173 0.64309535 -0.57413415
v 0.32649584 0.64532831 -0.57534310
v 0.33591322 0.64681696 -0.57588393
v 0.34477570 0.64718912 -0.57542844
v 0.35283517 0.64607264 -0.57365028
v 0.36003180 0.64346751 -0.57055487
v 0.30812173 0.63774630 -0.58127174
v 0.35150116 0.63848614 -0.57804132
v 0.43182203 0.91888669 -0.55606539
v 0.08742814 0.94491755 -0.57388286
v 0.10117199 0.94826823 -0.57621715
v 0.11289482 0.94587056 -0.57523321
v 0.12491345 0.94429315 -0.57472300
v 0.13725766 0.94353209 -0.57468526
v 0.14995723 0.94358348 -0.57511872
v 0.16338735 0.94525716 -0.57649375
v 0.44326825 0.94890063 -0.58746798
v 0.43214448 0.91427901 -0.56751602
v 0.06584513 0.91333885 -0.56879407
v 0.07861944 0.91508085 -0.57023288
v 0.09088193 0.91518073 -0.57070286
v 0.10287859 0.91446085 -0.57068886
v 0.11457964 0.91292512 -0.57019213
v 0.12628068 0.91138939 -0.56969540
v 0.13831704 0.91066430 -0.56967971
v 0.15071847 0.91074594 -0.57014380
v 0.16280445 0.91001434 -0.57012600
v 0.17527535 0.91008686 -0.57058714
v 0.18778596 0.91015418 -0.57104659
v 0.20033626 0.91021628 -0.57150436
v 0.21332112 0.91107600 -0.57243895
v 0.22596074 0.91112638 -0.57289292
v 0.23822536 0.91037133 -0.57286754
v 0.25093446 0.91041259 -0.57331857
v 0.42964868 0.90575910 -0.57662788
v 0.41593935 0.86909931 -0.55492255
v 0.06953711 0.88469619 -0.56555123
v 0.08149154 0.88482762 -0.56605226
v 0.09256966 0.88252344 -0.56507772
v 0.10425846 0.88183953 -0.56508577
v 0.11629229 0.88196054 -0.56558343
v 0.12769560 0.88046389 -0.56509934
v 0.14013402 0.88138201 -0.56608408
v 0.15227702 0.88148869 -0.56657710
v 0.16409483 0.88078784 -0.56657968
v 0.17630731 0.88088541 -0.56706975
v 0.18855948 0.88097776 -0.56755814
v 0.20006203 0.87946808 -0.56706984
v 0.21196917 0.87875552 -0.56706862
v 0.22348165 0.87724454 -0.56657989
v 0.23541856 0.87652806 -0.56657741
v 0.24650661 0.87422258 -0.56560245
v 0.25801909 0.87271160 -0.56511372
v 0.27043998 0.87278181 -0.56559495
v 0.28150818 0.87047893 -0.56462083
v 0.29255653 0.86817866 -0.56364755
v 0.30745686 0.87217449 -0.56654481
v 0.31064246 0.85730286 -0.55783720
v 0.32306335 0.85737307 -0.55831843
v 0.33346893 0.85430696 -0.55686818
v 0.34435849 0.85202753 -0.55590164
v 0.35736260 0.85287140 -0.55686237
v 0.37151331 0.85526520 -0.55878294
v 0.38797707 0.86075624 -0.56262234
v 0.41194334 0.87631531 -0.57269859
v 0.41341432 0.86081851 -0.56355951
v 0.40694611 0.83531101 -0.54820212
v 0.05846998 0.84892687 -0.55680417
v 0.06916125 0.84667790 -0.55583707
v 0.08135836 0.84846014 -0.55737225
v 0.09394993 0.85103638 -0.55940392
v 0.10631575 0.85279647 -0.56093193
v 0.11876098 0.85454615 -0.56245658
v 0.13128560 0.85628540 -0.56397785
v 0.14318009 0.85641582 -0.56449939
v 0.15511428 0.85654103 -0.56501925
v 0.16708817 0.85666103 -0.56553742
v 0.17871722 0.85598052 -0.56555699
v 0.19036612 0.85529741 -0.56557571
v 0.20203487 0.85461169 -0.56559360
v 0.21372347 0.85392336 -0.56561064
v 0.22543192 0.85323243 -0.56562684
v 0.23672606 0.85175011 -0.56514738
v 0.24802020 0.85026779 -0.56466793
v 0.26067636 0.85114401 -0.56567037
v 0.27200028 0.84965778 -0.56518966
v 0.28332419 0.84817155 -0.56470894
v 0.29464810 0.84668532 -0.56422822
v 0.30202237 0.83895132 -0.55980924
v 0.31377052 0.83825518 -0.55982375
v 0.32502496 0.83677806 -0.55934598
v 0.33470896 0.83296976 -0.55739516
v 0.34860065 0.83537536 -0.55937164
v 0.35987494 0.83389564 -0.55889303
v 0.37280899 0.83473539 -0.55988368
v 0.38467623 0.83402362 -0.55989314
v 0.39770952 0.83485035 -0.56087957
v 0.40497210 0.82797678 -0.55697858
v 0.07290574 0.82192635 -0.55360286
v 0.08522836 0.82451569 -0.55569087
v 0.09797501 0.82789070 -0.55828310
v 0.11017133 0.82965529 -0.55985425
v 0.12244705 0.83140946 -0.56142202
v 0.13444760 0.83235841 -0.56247925
v 0.14614321 0.83250605 -0.56302720
v 0.15825292 0.83344068 -0.56407980
v 0.16965351 0.83278571 -0.56411805
v 0.18146821 0.83291773 -0.56466095
v 0.19332261 0.83304453 -0.56520216
v 0.20480260 0.83237915 -0.56523704
v 0.21630244 0.83171116 -0.56527108
v 0.22782212 0.83104056 -0.56530427
v 0.23891777 0.82958429 -0.56483324
v 0.25092104 0.82969155 -0.56536813
v 0.26203654 0.82823268 -0.56489626
v 0.27267837 0.82599464 -0.56392227
v 0.28378395 0.82453707 -0.56345082
v 0.29192847 0.81842014 -0.55997173
v 0.30347793 0.81774564 -0.56000366
v 0.31350717 0.81474667 -0.55853345
v 0.32611311 0.81561617 -0.55956498
v 0.33664578 0.81339246 -0.55859563
v 0.34878799 0.81348149 -0.55912462
v 0.36207602 0.81510279 -0.56064942
v 0.37319151 0.81364392 -0.56017755
v 0.38373411 0.81141890 -0.55920778
v 0.39600534 0.81149100 -0.55973129
v 0.39823946 0.79857783 -0.55180308
v 0.07903480 0.80459803 -0.55563505
v 0.09126711 0.80717703 -0.55777181
v 0.10326415 0.80895001 -0.55938735
v 0.11499615 0.80992089 -0.56048293
v 0.12678769 0.81088396 -0.56157599
v 0.13827448 0.81105013 -0.56215077
v 0.14980098 0.81121110 -0.56272387
v 0.16136717 0.81136685 -0.56329528
v 0.17336713 0.81230256 -0.56437949
v 0.18461865 0.81166272 -0.56443305
v 0.19630394 0.81180284 -0.56499941
v 0.20718125 0.81037523 -0.56453765
v 0.21892608 0.81050753 -0.56510148
v 0.23026693 0.80985597 -0.56515125
v 0.24162762 0.80920181 -0.56520018
v 0.25254463 0.80776898 -0.56473673
v 0.26251471 0.80478666 -0.56325107
v 0.27292848 0.80258299 -0.56227778
v 0.28184247 0.79806549 -0.55977453
v 0.29319324 0.79741263 -0.55982388
v 0.30456386 0.79675716 -0.55987239
v 0.31595433 0.79609908 -0.55992005
v 0.32789766 0.79620534 -0.56047546
v 0.33879481 0.79477512 -0.56001285
v 0.35079769 0.79487356 -0.56056573
v 0.36227748 0.79420376 -0.56060960
v 0.37377711 0.79353136 -0.56065263
v 0.38587923 0.79361677 -0.56120129
v 0.39328060 0.78762402 -0.55769984
v 0.06212343 0.78542328 -0.55515265
v 0.07347769 0.78643042 -0.55629122
v 0.08521590 0.78821962 -0.55795368
v 0.09703351 0.78999840 -0.55961277
v 0.10858627 0.79097949 -0.56074291
v 0.12019858 0.79195277 -0.56187053
v 0.13150634 0.79213356 -0.56247088
v 0.14247977 0.79152578 -0.56254523
v 0.15385701 0.79169745 -0.56314263
v 0.16566780 0.79264468 -0.56426182
v 0.17713436 0.79280463 -0.56485543
v 0.18864061 0.79295937 -0.56544736
v 0.19933927 0.79155520 -0.56499318
v 0.21047150 0.79092658 -0.56506079
v 0.22162359 0.79029535 -0.56512756
v 0.23234210 0.78888858 -0.56467254
v 0.24306062 0.78748181 -0.56421752
v 0.25283261 0.78453436 -0.56272230
v 0.26304808 0.78236116 -0.56174844
v 0.27324371 0.78019056 -0.56077543
v 0.28442557 0.77955542 -0.56084094
v 0.29562727 0.77891769 -0.56090560
v 0.30684882 0.77827734 -0.56096942
v 0.31915585 0.77915944 -0.56206754
v 0.32989421 0.77775006 -0.56161168
v 0.34118524 0.77710059 -0.56167255
v 0.35193353 0.77568991 -0.56121626
v 0.36325433 0.77503654 -0.56127587
v 0.37459497 0.77438057 -0.56133463
v 0.38595547 0.77372199 -0.56139255
v 0.38890386 0.76251315 -0.55424489
v 0.02519220 0.76905364 -0.55516078
v 0.03654257 0.77087599 -0.55687564
v 0.04708905 0.77031981 -0.55697710
v 0.05795974 0.77054909 -0.55761397
v 0.06918439 0.77155992 -0.55878500
v 0.08046860 0.77256294 -0.55995349
v 0.09181235 0.77355814 -0.56111946
v 0.10321565 0.77454553 -0.56228289
v 0.11467849 0.77552511 -0.56344380
v 0.12547309 0.77493636 -0.56353473
v 0.13666136 0.77512396 -0.56415812
v 0.14788933 0.77530634 -0.56477983
v 0.15915699 0.77548352 -0.56539985
v 0.17046436 0.77565549 -0.56601818
v 0.18139790 0.77504851 -0.56610321
v 0.19277474 0.77521135 -0.56671860
v 0.20332454 0.77382672 -0.56627074
v 0.21387434 0.77244209 -0.56582289
v 0.22487735 0.77182599 -0.56590496
v 0.23497393 0.76967283 -0.56492717
v 0.24457760 0.76675636 -0.56342113
v 0.25414157 0.76384509 -0.56191677
v 0.26465167 0.76246567 -0.56147060
v 0.27616745 0.76261028 -0.56208009
v 0.28772292 0.76274969 -0.56268789
v 0.29931810 0.76288388 -0.56329401
v 0.31042036 0.76225475 -0.56337187
v 0.32099993 0.76086621 -0.56292275
v 0.33213197 0.76023318 -0.56299936
v 0.34328385 0.75959754 -0.56307512
v 0.35502790 0.75971219 -0.56367491
v 0.36564717 0.75831845 -0.56322411
v 0.37508211 0.75542411 -0.56172523
v 0.38387528 0.75178600 -0.55970442
v 0.38587679 0.73993113 -0.55193099
v 0.01014870 0.75204780 -0.55527579
v 0.02183366 0.75545562 -0.55812870
v 0.03321125 0.75766843 -0.56015742
v 0.04394259 0.75790712 -0.56081818
v 0.05471364 0.75814060 -0.56147725
v 0.06552438 0.75836887 -0.56213463
v 0.07669882 0.75937297 -0.56333474
v 0.08793281 0.76036927 -0.56453231
v 0.09888249 0.76057930 -0.56518380
v 0.10987188 0.76078412 -0.56583360
v 0.12090096 0.76098373 -0.56648172
v 0.13159612 0.76040360 -0.56658585
v 0.14269467 0.76059410 -0.56723102
v 0.15383292 0.76077938 -0.56787450
v 0.16501087 0.76095945 -0.56851629
v 0.17622852 0.76113432 -0.56915640
v 0.18706262 0.76053595 -0.56925464
v 0.19748340 0.75916825 -0.56881226
v 0.20790418 0.75780055 -0.56836988
v 0.21832496 0.75643286 -0.56792750
v 0.22828279 0.75430235 -0.56694661
v 0.23774791 0.75141293 -0.56542849
v 0.24669054 0.74776852 -0.56337438
v 0.25655905 0.74564973 -0.56239729
v 0.26791564 0.74580636 -0.56303150
v 0.27931193 0.74595778 -0.56366403
v 0.29074792 0.74610398 -0.56429487
v 0.30115878 0.74473759 -0.56385291
v 0.31211197 0.74412359 -0.56394609
v 0.32308502 0.74350698 -0.56403842
v 0.33407791 0.74288777 -0.56412992
v 0.34623488 0.74376293 -0.56528831
v 0.35670528 0.74238872 -0.56484382
v 0.36717568 0.74101451 -0.56439934
v 0.37824797 0.74038488 -0.56448746
v 0.38322199 0.73231989 -0.55925287
v 0.38117825 0.71611665 -0.54817645
v -0.00403186 0.73672233 -0.55617403
v 0.00730640 0.73973945 -0.55881199
v 0.01861674 0.74235068 -0.56116756
v 0.02974222 0.74416703 -0.56296384
v 0.04050605 0.74480214 -0.56392475
v 0.05147149 0.74582037 -0.56516068
v 0.06249647 0.74683077 -0.56639408
v 0.07341909 0.74744505 -0.56734825
v 0.08472507 0.74882814 -0.56885330
v 0.09592869 0.74981510 -0.57007911
v 0.10683828 0.75002152 -0.57075027
v 0.11778757 0.75022273 -0.57141974
v 0.12840314 0.74964860 -0.57153623
v 0.13942190 0.74984069 -0.57220275
v 0.15048036 0.75002757 -0.57286759
v 0.16117532 0.74944302 -0.57298072
v 0.17189013 0.74885587 -0.57309300
v 0.18262479 0.74826611 -0.57320444
v 0.19251335 0.74614913 -0.57221751
v 0.20282495 0.74479577 -0.57177976
v 0.21313656 0.74344240 -0.57134202
v 0.22252268 0.74057223 -0.56980928
v 0.23139643 0.73695017 -0.56773114
v 0.24021062 0.73333593 -0.56565554
v 0.24945780 0.73048400 -0.56412869
v 0.25967016 0.72914365 -0.56369516
v 0.26988252 0.72780331 -0.56326163
v 0.28113947 0.72796414 -0.56391804
v 0.29243612 0.72811976 -0.56457276
v 0.30377247 0.72827016 -0.56522580
v 0.31514852 0.72841536 -0.56587716
v 0.32656426 0.72855535 -0.56652683
v 0.33801971 0.72869012 -0.56717481
v 0.34776932 0.72659138 -0.56619378
v 0.35809086 0.72523671 -0.56575561
v 0.36961577 0.72536237 -0.56640065
v 0.37873392 0.72252737 -0.56487928
v 0.37973236 0.71010931 -0.55632975
v -0.00638869 0.72568550 -0.56032472
v 0.00446804 0.72751937 -0.56216834
v 0.01636311 0.73206840 -0.56598433
v 0.02769727 0.73465430 -0.56838380
v 0.03883685 0.73645104 -0.57021542
v 0.04990395 0.73784996 -0.57176204
v 0.06119735 0.73962651 -0.57358713
v 0.07240836 0.74100653 -0.57512764
v 0.08352206 0.74199198 -0.57638423
v 0.09435187 0.74219999 -0.57707674
v 0.10522136 0.74240279 -0.57776756
v 0.11613056 0.74260038 -0.57845670
v 0.12670623 0.74202705 -0.57858388
v 0.13730175 0.74145112 -0.57871021
v 0.14791711 0.74087258 -0.57883569
v 0.15855233 0.74029143 -0.57896034
v 0.16879446 0.73894718 -0.57852554
v 0.17903660 0.73760293 -0.57809075
v 0.18884596 0.73550079 -0.57709820
v 0.19863547 0.73340125 -0.57610649
v 0.20795251 0.73054902 -0.57455871
v 0.21722985 0.72770201 -0.57301262
v 0.22646750 0.72486020 -0.57146821
v 0.23445944 0.72014516 -0.56853637
v 0.24334672 0.71694199 -0.56671878
v 0.25293774 0.71486850 -0.56573550
v 0.26250891 0.71279762 -0.56475306
v 0.27232128 0.71110242 -0.56404844
v 0.28238974 0.70978097 -0.56362102
v 0.29327111 0.70957486 -0.56402328
v 0.30390633 0.70899372 -0.56414792
v 0.31512319 0.70915093 -0.56482400
v 0.32609389 0.70893310 -0.56522247
v 0.33680353 0.70834219 -0.56534395
v 0.34753303 0.70774867 -0.56546459
v 0.35978611 0.70899192 -0.56696087
v 0.37486004 0.71353108 -0.57092997
v 0.37673391 0.70228675 -0.56307271
v 0.37360531 0.68558876 -0.55110687
v -0.00747247 0.71860834 -0.56719420
v 0.00321680 0.72004131 -0.56878831
v 0.01534447 0.72533677 -0.57324691
v 0.02678973 0.72829102 -0.57597914
v 0.03790371 0.73007337 -0.57784778
v 0.04909708 0.73184530 -0.57971304
v 0.20435630 0.72038081 -0.57955824
v 0.21355960 0.71755239 -0.57799733
v 0.22248707 0.71435504 -0.57615557
v 0.23064161 0.71004376 -0.57346895
v 0.23945494 0.70686139 -0.57163204
v 0.24872070 0.70442990 -0.57036102
v 0.25770070 0.70163079 -0.56880959
v 0.26742385 0.69994953 -0.56810427
v 0.27687116 0.69789934 -0.56711810
v 0.28602775 0.69548218 -0.56585173
v 0.29598208 0.69417570 -0.56542915
v 0.30537480 0.69213268 -0.56444530
v 0.31531920 0.69082751 -0.56402315
v 0.32526360 0.68952233 -0.56360099
v 0.33609506 0.68931612 -0.56401884
v 0.34725694 0.68947167 -0.56471522
v 0.36273706 0.69473226 -0.56932406
v 0.37218437 0.69268207 -0.56833789
v 0.37119919 0.67863188 -0.55814029
v 0.36730268 0.66172277 -0.54572583
v 0.23020076 0.70520645 -0.58228207
v 0.23851770 0.70129451 -0.57984968
v 0.24726701 0.69813165 -0.57799302
v 0.25571082 0.69460597 -0.57585229
v 0.26513848 0.69256280 -0.57485797
v 0.27454629 0.69052223 -0.57386450
v 0.28393425 0.68848427 -0.57287187
v 0.29330237 0.68644892 -0.57188009
v 0.30180853 0.68331797 -0.57003375
v 0.31083640 0.68092436 -0.56875936
v 0.32012512 0.67889943 -0.56777095
v 0.32968957 0.67724121 -0.56706788
v 0.34104740 0.67776507 -0.56807095
v 0.35337138 0.67937086 -0.56992415
v 0.36608523 0.68132838 -0.57205785
v 0.36816358 0.67098288 -0.56454345
v 0.36518785 0.65525709 -0.55278790
v 0.28292485 0.68297792 -0.58098927
v 0.29172699 0.68021990 -0.57940945
v 0.29992824 0.67673938 -0.57725206
v 0.30835550 0.67362988 -0.57538661
v 0.31702367 0.67088945 -0.57381248
v 0.32594762 0.66851614 -0.57252903
v 0.33544270 0.66686925 -0.57182441
v 0.34645492 0.66702668 -0.57256308
v 0.35843797 0.66825877 -0.57416515
v 0.36449908 0.66265500 -0.57028938
v 0.36275390 0.64845923 -0.55950807
v 0.35967566 0.63323636 -0.54787873
v 0.32457115 0.66272163 -0.58023020
v 0.33284508 0.65964335 -0.57834881
v 0.34168001 0.65728839 -0.57705566
v 0.35110572 0.65565282 -0.57634949
v 0.35894531 0.65223308 -0.57418050
v 0.36096174 0.64240515 -0.56675017
v 0.35339490 0.64188618 -0.57791877
v 0.44137557 0.92477301 -0.56131630
v 0.43411062 0.89741157 -0.54781805
v 0.30620104 0.95808676 -0.57577602
v 0.32014582 0.95509642 -0.57607153
v 0.33303750 0.95061345 -0.57553055
v 0.43612437 0.93428368 -0.58045178
v 0.43492868 0.91332275 -0.57037415
v 0.43140615 0.89038270 -0.55907314
v 0.42547164 0.86549313 -0.54655233
v 0.22554457 0.95124383 -0.57746947
v 0.23909939 0.94837995 -0.57779933
v 0.25169786 0.94399893 -0.57727065
v 0.26378978 0.93886921 -0.57631390
v 0.27586279 0.93374606 -0.57535794
v 0.28686594 0.92714525 -0.57354821
v 0.29888220 0.92204184 -0.57259464
v 0.31087954 0.91694501 -0.57164186
v 0.32119643 0.90965798 -0.56941160
v 0.33369086 0.90531314 -0.56888729
v 0.34561253 0.90024262 -0.56793768
v 0.35460420 0.89156673 -0.56486437
v 0.36348237 0.88293030 -0.56179582
v 0.37825838 0.88149147 -0.56297309
v 0.39249946 0.87931380 -0.56372348
v 0.41113765 0.88208105 -0.56743467
v 0.42304040 0.87701710 -0.56648586
v 0.42406180 0.86001458 -0.55835503
v 0.41825844 0.83613679 -0.54601728
v 0.18474614 0.93082393 -0.57693283
v 0.19469429 0.92276312 -0.57422376
v 0.20693335 0.91850709 -0.57371016
v 0.22014552 0.91575323 -0.57407238
v 0.23190748 0.91074282 -0.57312048
v 0.24415599 0.90648349 -0.57260649
v 0.25588958 0.90148295 -0.57165579
v 0.26760425 0.89648899 -0.57070587
v 0.27983384 0.89223624 -0.57019268
v 0.29097683 0.88652079 -0.56880843
v 0.30208199 0.88081850 -0.56742577
v 0.31202487 0.87367981 -0.56517524
v 0.31903368 0.86296001 -0.56075621
v 0.33342704 0.86163597 -0.56198551
v 0.34435249 0.85599616 -0.56061039
v 0.35824038 0.85392761 -0.56140258
v 0.37157550 0.85113099 -0.56175964
v 0.38618640 0.84973129 -0.56297980
v 0.39898768 0.84620003 -0.56290094
v 0.41435942 0.84545604 -0.56454750
v 0.41687883 0.83077571 -0.55756693
v 0.41123284 0.80789144 -0.54542913
v 0.14606383 0.91178294 -0.57668453
v 0.17100215 0.90494226 -0.57657266
v 0.18210001 0.89925165 -0.57517232
v 0.19411206 0.89507455 -0.57466825
v 0.20612412 0.89089745 -0.57416418
v 0.21764124 0.88597675 -0.57321357
v 0.22964384 0.88180295 -0.57270990
v 0.24113259 0.87689211 -0.57176047
v 0.25260242 0.87198786 -0.57081184
v 0.26511887 0.86855108 -0.57075392
v 0.27656979 0.86365340 -0.56980609
v 0.28800179 0.85876230 -0.56885904
v 0.29773144 0.85171604 -0.56658149
v 0.30624423 0.84326152 -0.56342037
v 0.31812387 0.83913047 -0.56292186
v 0.32941400 0.83428871 -0.56198077
v 0.34248213 0.83157579 -0.56236702
v 0.35315436 0.82603318 -0.56098454
v 0.36996768 0.82751218 -0.56401752
v 0.38191353 0.82335810 -0.56351623
v 0.39895384 0.82475816 -0.56653968
v 0.41291416 0.82265071 -0.56735580
v 0.41053810 0.80333131 -0.55717457
v 0.11643026 0.88166014 -0.57124820
v 0.13289105 0.88595858 -0.57579683
v 0.14643398 0.88489370 -0.57713375
v 0.15640441 0.87778200 -0.57481012
v 0.16816110 0.87369371 -0.57431677
v 0.17991778 0.86960541 -0.57382342
v 0.19167446 0.86551712 -0.57333007
v 0.20293729 0.86068942 -0.57238113
v 0.21518783 0.85734053 -0.57234336
v 0.22694451 0.85325224 -0.57185001
v 0.23817896 0.84843441 -0.57090226
v 0.24992619 0.84434940 -0.57040931
v 0.26167341 0.84026440 -0.56991635
v 0.27287003 0.83545972 -0.56897020
v 0.28292761 0.82922886 -0.56711922
v 0.29292844 0.82301772 -0.56527063
v 0.30403048 0.81824594 -0.56432844
v 0.31511360 0.81348073 -0.56338705
v 0.32617780 0.80872210 -0.56244645
v 0.33904515 0.80606986 -0.56285910
v 0.35133352 0.80270782 -0.56281974
v 0.36551962 0.80141928 -0.56412967
v 0.37978138 0.80010443 -0.56543643
v 0.39734475 0.80219718 -0.56898618
v 0.40525868 0.79397833 -0.56579623
v 0.40110526 0.77355526 -0.55453915
v 0.10145019 0.85222847 -0.56742536
v 0.12108463 0.86262559 -0.57582212
v 0.13127786 0.85636126 -0.57393848
v 0.14277917 0.85236178 -0.57345584
v 0.15428048 0.84836229 -0.57297321
v 0.16578179 0.84436280 -0.57249057
v 0.17776641 0.84110181 -0.57247295
v 0.18878441 0.83636382 -0.57152530
v 0.20078795 0.83309626 -0.57150689
v 0.21178702 0.82836485 -0.57056003
v 0.22380948 0.82509070 -0.57054082
v 0.23532025 0.82108792 -0.57005779
v 0.24683101 0.81708515 -0.56957476
v 0.25779225 0.81236689 -0.56862948
v 0.26873458 0.80765521 -0.56768501
v 0.27908955 0.80224121 -0.56627988
v 0.28998458 0.79754598 -0.56533738
v 0.30086070 0.79285733 -0.56439568
v 0.31291153 0.78957332 -0.56437529
v 0.32498128 0.78628273 -0.56435410
v 0.33768568 0.78367802 -0.56479157
v 0.35167829 0.78243848 -0.56614559
v 0.36447727 0.77980088 -0.56657910
v 0.37731409 0.77715012 -0.56701102
v 0.39280300 0.77720340 -0.56927284
v 0.39779703 0.76640106 -0.56421028
v 0.39318713 0.74624641 -0.55275655
v 0.09334699 0.83512992 -0.57064712
v 0.10802519 0.83724170 -0.57398550
v 0.11796629 0.83107876 -0.57208547
v 0.12921222 0.82716808 -0.57161355
v 0.14092148 0.82399828 -0.57161648
v 0.15170409 0.81934671 -0.57066971
v 0.16295003 0.81543603 -0.57019779
v 0.17468765 0.81225636 -0.57019953
v 0.18594305 0.80834239 -0.56972721
v 0.19770905 0.80515285 -0.56972776
v 0.20897390 0.80123559 -0.56925505
v 0.22076828 0.79803619 -0.56925440
v 0.23204259 0.79411564 -0.56878129
v 0.24331690 0.79019509 -0.56830818
v 0.25459121 0.78627454 -0.56783507
v 0.26529815 0.78164928 -0.56689148
v 0.27713982 0.77843343 -0.56688885
v 0.28782785 0.77381476 -0.56594605
v 0.30087991 0.77198201 -0.56688122
v 0.31217314 0.76805488 -0.56640731
v 0.32346636 0.76412775 -0.56593341
v 0.33538370 0.76088559 -0.56592761
v 0.34922066 0.75968190 -0.56732413
v 0.36313329 0.75845190 -0.56871747
v 0.37581661 0.75584537 -0.56917381
v 0.38721388 0.75188207 -0.56869554
v 0.39122572 0.74056497 -0.56308999
v 0.38413569 0.71867645 -0.55004164
v 0.08230749 0.81291670 -0.57018138
v 0.09545791 0.81283089 -0.57214595
v 0.10559966 0.80750932 -0.57071380
v 0.11706192 0.80442084 -0.57073609
v 0.12761861 0.79985240 -0.56978981
v 0.13815639 0.79529055 -0.56884432
v 0.14963756 0.79219549 -0.56886582
v 0.16113765 0.78909385 -0.56888652
v 0.17215659 0.78526211 -0.56842412
v 0.18368505 0.78215061 -0.56844363
v 0.19523244 0.77903253 -0.56846234
v 0.20679874 0.77590787 -0.56848026
v 0.21784605 0.77206625 -0.56801668
v 0.22889336 0.76822464 -0.56755309
v 0.23994066 0.76438303 -0.56708951
v 0.25155426 0.76124192 -0.56710545
v 0.26203528 0.75669980 -0.56616234
v 0.27425299 0.75424605 -0.56665621
v 0.28650853 0.75177914 -0.56714849
v 0.29940602 0.74998644 -0.56811712
v 0.30990596 0.74543773 -0.56717322
v 0.32225608 0.74293794 -0.56766153
v 0.33401155 0.73974750 -0.56767151
v 0.34835373 0.73924727 -0.56958608
v 0.36148767 0.73737234 -0.57054478
v 0.37533923 0.73614529 -0.57197666
v 0.38390387 0.72957728 -0.56960412
v 0.38287590 0.71378100 -0.56058816
v 0.37668275 0.69349886 -0.54826596
v 0.07258762 0.79313339 -0.57078345
v 0.08381234 0.79012294 -0.57082469
v 0.09372925 0.78488870 -0.56938399
v 0.10451172 0.78113918 -0.56893152
v 0.11529420 0.77738966 -0.56847905
v 0.12560606 0.77291093 -0.56753405
v 0.13685915 0.76989062 -0.56757411
v 0.14764163 0.76614109 -0.56712164
v 0.15892310 0.76311091 -0.56716050
v 0.17022349 0.76007415 -0.56719857
v 0.18154279 0.75703082 -0.56723585
v 0.19288101 0.75398090 -0.56727233
v 0.20423815 0.75092441 -0.56730802
v 0.21506792 0.74715844 -0.56685357
v 0.22589768 0.74339247 -0.56639911
v 0.23729265 0.74032282 -0.56643321
v 0.24813188 0.73655357 -0.56597836
v 0.25897111 0.73278431 -0.56552351
v 0.26921676 0.72832861 -0.56458129
v 0.27884045 0.72319633 -0.56315289
v 0.28842632 0.71807720 -0.56172609
v 0.29984020 0.71500097 -0.56175939
v 0.31064160 0.71124487 -0.56130613
v 0.32336560 0.70949878 -0.56230901
v 0.33679667 0.70839967 -0.56379450
v 0.35030342 0.70727425 -0.56527681
v 0.36589356 0.70810292 -0.56820852
v 0.37550780 0.70297393 -0.56678052
v 0.37407363 0.68740117 -0.55761975
v 0.06291094 0.77351788 -0.57102402
v 0.07351371 0.76983085 -0.57057909
v 0.08367531 0.76540894 -0.56963141
v 0.09426862 0.76172520 -0.56918688
v 0.10486193 0.75804146 -0.56874234
v 0.11451616 0.75290770 -0.56729468
v 0.12509055 0.74923054 -0.56685094
v 0.13615340 0.74627181 -0.56690798
v 0.14723517 0.74330651 -0.56696421
v 0.15833585 0.74033462 -0.56701966
v 0.16945545 0.73735616 -0.56707430
v 0.18059397 0.73437112 -0.56712816
v 0.19175140 0.73137950 -0.56718122
v 0.20292775 0.72838130 -0.56723349
v 0.21356836 0.72468112 -0.56678697
v 0.22477308 0.72167305 -0.56683805
v 0.23542314 0.71796958 -0.56639114
v 0.24490712 0.71289502 -0.56495062
v 0.25435327 0.70783362 -0.56351169
v 0.26376158 0.70278537 -0.56207435
v 0.27374348 0.69842596 -0.56113421
v 0.28308559 0.69340073 -0.55969964
v 0.29302019 0.68905777 -0.55876149
v 0.30357567 0.68538718 -0.55831854
v 0.31413114 0.68171660 -0.55787559
v 0.32600403 0.67936448 -0.55841990
v 0.33925108 0.67831108 -0.55994908
v 0.35460667 0.67918932 -0.56295357
v 0.36597219 0.67612535 -0.56299790
v 0.36342583 0.66013331 -0.55320068
v 0.05454094 0.75628195 -0.57244087
v 0.06498292 0.75265083 -0.57200268
v 0.07454472 0.74755835 -0.57054092
v 0.08496779 0.74393381 -0.57010353
v 0.09493184 0.73958517 -0.56915514
v 0.10487699 0.73524311 -0.56820755
v 0.11575905 0.73234268 -0.56828116
v 0.12617265 0.72872143 -0.56784417
v 0.13658625 0.72510018 -0.56740718
v 0.14801244 0.72289426 -0.56798821
v 0.15844496 0.71926643 -0.56755043
v 0.16940269 0.71633969 -0.56762086
v 0.18037934 0.71340636 -0.56769050
v 0.19137490 0.71046646 -0.56775935
v 0.20238938 0.70751999 -0.56782740
v 0.21398582 0.70525486 -0.56840129
v 0.22504759 0.70229193 -0.56846736
v 0.23554631 0.69864108 -0.56802679
v 0.24486220 0.69363412 -0.56657535
v 0.25474114 0.68931508 -0.56563053
v 0.26460115 0.68500262 -0.56468651
v 0.27506205 0.68136492 -0.56424754
v 0.28552294 0.67772723 -0.56380856
v 0.29598384 0.67408954 -0.56336958
v 0.30644473 0.67045185 -0.56293061
v 0.31690562 0.66681415 -0.56249163
v 0.32803360 0.66382821 -0.56255492
v 0.33918050 0.66083568 -0.56261742
v 0.35171831 0.65912691 -0.56368206
v 0.35735828 0.65097962 -0.55973358
v 0.35652157 0.63713107 -0.55128454
v 0.02689258 0.72656402 -0.56249744
v 0.04746792 0.74138784 -0.57511531
v 0.05691838 0.73634322 -0.57364023
v 0.06677002 0.73203824 -0.57268757
v 0.07749967 0.72918624 -0.57277657
v 0.08733239 0.72488784 -0.57182470
v 0.09761358 0.72131264 -0.57139327
v 0.10789476 0.71773744 -0.57096183
v 0.11817595 0.71416224 -0.57053040
v 0.12895289 0.71129379 -0.57061741
v 0.13974875 0.70841877 -0.57070363
v 0.15056352 0.70553716 -0.57078905
v 0.16139721 0.70264898 -0.57087368
v 0.17224982 0.69975422 -0.57095752
v 0.18312135 0.69685289 -0.57104057
v 0.19456429 0.69463199 -0.57163888
v 0.20604508 0.69239794 -0.57223561
v 0.21756369 0.69015073 -0.57283075
v 0.22912014 0.68789037 -0.57342430
v 0.23953374 0.68426912 -0.57298731
v 0.24994734 0.68064787 -0.57255032
v 0.26097020 0.67769391 -0.57262701
v 0.27139326 0.67406938 -0.57218962
v 0.28181632 0.67044484 -0.57175223
v 0.29223938 0.66682030 -0.57131485
v 0.30201535 0.66254164 -0.57036536
v 0.31242895 0.65892039 -0.56992837
v 0.32217655 0.65465159 -0.56898007
v 0.33122977 0.64974511 -0.56752167
v 0.34093007 0.64549275 -0.56657536
v 0.34783394 0.63869624 -0.56358939
v 0.02164739 0.71477484 -0.56681158
v 0.04210115 0.72952668 -0.57965935
v 0.05145920 0.72452334 -0.57817017
v 0.06165526 0.72097774 -0.57774231
v 0.07185132 0.71743214 -0.57731444
v 0.08159054 0.71317082 -0.57635751
v 0.09131084 0.70891609 -0.57540137
v 0.10148798 0.70537707 -0.57497430
v 0.11166513 0.70183805 -0.57454723
v 0.12283162 0.69970414 -0.57517513
v 0.13353182 0.69685781 -0.57527435
v 0.14373734 0.69330893 -0.57484609
v 0.15498896 0.69114542 -0.57547042
v 0.16521340 0.68758996 -0.57504137
v 0.17652177 0.68540672 -0.57566332
v 0.18731655 0.68252750 -0.57575857
v 0.19925201 0.68100077 -0.57690245
v 0.21124423 0.67945431 -0.57804394
v 0.22329319 0.67788812 -0.57918305
v 0.23539890 0.67630219 -0.58031978
v 0.24696265 0.67403015 -0.58093101
v 0.25795605 0.67108186 -0.58101793
v 0.26896837 0.66812699 -0.58110406
v 0.27999961 0.66516554 -0.58118940
v 0.29041321 0.66154430 -0.58075240
v 0.30082681 0.65792305 -0.58031541
v 0.31058495 0.65365516 -0.57935768
v 0.31965924 0.64875048 -0.57788041
v 0.32802131 0.64321890 -0.57588477
v 0.33632664 0.63770706 -0.57389152
v 0.43964909 0.91626726 -0.56029315
v 0.43476433 0.89331388 -0.55035681
v 0.41371640 0.90855251 -0.56992265
v 0.40824225 0.88502150 -0.55938388
v 0.41258680 0.87043781 -0.55404398
v 0.35459495 0.88954553 -0.56916380
v 0.36477387 0.87997292 -0.56674346
v 0.36630415 0.86291586 -0.55977585
v 0.37696039 0.85409886 -0.55775130
v 0.38536648 0.84345841 -0.55459603
v 0.33790883 0.88934786 -0.58264704
v 0.33698044 0.86966383 -0.57395563
v 0.33922261 0.85330854 -0.56723358
v 0.34690719 0.84207901 -0.56363689
v 0.35230233 0.82906200 -0.55888541
v 0.36117596 0.81920688 -0.55608195
v 0.37218067 0.81122506 -0.55444425
v 0.31874054 0.84933150 -0.57795100
v 0.32010086 0.83252287 -0.57070930
v 0.32616177 0.82019842 -0.56626910
v 0.33494643 0.81041593 -0.56342713
v 0.34510177 0.80189966 -0.56138367
v 0.35446620 0.79280749 -0.55894827
v 0.36301333 0.78315372 -0.55612276
v 0.37147247 0.77354762 -0.55330333
v 0.29572449 0.82481485 -0.57867665
v 0.30315821 0.81378966 -0.57497228
v 0.30833826 0.80098690 -0.57005702
v 0.31837512 0.79254949 -0.56799497
v 0.32690366 0.78293022 -0.56512608
v 0.33534423 0.77335861 -0.56226328
v 0.34518753 0.76502608 -0.56021463
v 0.35573221 0.75731308 -0.55857306
v 0.36318987 0.74727449 -0.55532268
v 0.36977021 0.73671172 -0.55167740
v 0.28138253 0.79091762 -0.57594268
v 0.28987489 0.78134237 -0.57303162
v 0.29899668 0.77242076 -0.57054156
v 0.31095290 0.76594206 -0.56971354
v 0.31996912 0.75707765 -0.56723079
v 0.33114634 0.75002636 -0.56599213
v 0.33929559 0.74063704 -0.56310484
v 0.34887965 0.73245964 -0.56104734
v 0.35610035 0.72257877 -0.55775977
v 0.36555244 0.71447288 -0.55571142
v 0.25829784 0.76704884 -0.57555644
v 0.26724113 0.75824350 -0.57304301
v 0.27897740 0.75188397 -0.57223022
v 0.28564120 0.74134438 -0.56845410
v 0.29584901 0.73383345 -0.56680013
v 0.30453716 0.72516636 -0.56430436
v 0.31315492 0.71653740 -0.56181347
v 0.32246214 0.70852467 -0.55974835
v 0.33094794 0.69996722 -0.55726661
v 0.33858593 0.69087936 -0.55437005
v 0.20279519 0.76399427 -0.57832665
v 0.21365002 0.75712744 -0.57709245
v 0.22379937 0.74965796 -0.57542467
v 0.23321685 0.74160014 -0.57332511
v 0.24187606 0.73296827 -0.57079562
v 0.25046488 0.72437454 -0.56827100
v 0.26042948 0.71700518 -0.56661601
v 0.27035889 0.70965488 -0.56496345
v 0.28025310 0.70232366 -0.56331333
v 0.28936266 0.69443269 -0.56123510
v 0.29841942 0.68657032 -0.55916053
v 0.30742340 0.67873656 -0.55708961
v 0.31792632 0.67206043 -0.55587979
v 0.32998097 0.66651331 -0.55552740
v 0.34364014 0.66206662 -0.55602879
v 0.15684286 0.75112826 -0.57749615
v 0.16611546 0.74316360 -0.57537983
v 0.17533528 0.73522754 -0.57326716
v 0.18450231 0.72732008 -0.57115816
v 0.19430287 0.72004938 -0.56949666
v 0.20337312 0.71219436 -0.56739435
v 0.21239059 0.70436795 -0.56529570
v 0.22206798 0.69716398 -0.56364273
v 0.23171018 0.68997908 -0.56199219
v 0.24350813 0.68456618 -0.56166652
v 0.25606279 0.67972329 -0.56177982
v 0.26790473 0.67428655 -0.56145110
v 0.27976426 0.66884028 -0.56112115
v 0.29087589 0.66281923 -0.56035162
v 0.30198752 0.65679819 -0.55958209
v 0.31466534 0.65188855 -0.55968687
v 0.32500267 0.64530703 -0.55847958
v 0.10706085 0.73284886 -0.57235661
v 0.12116519 0.73008194 -0.57388141
v 0.13210966 0.72415147 -0.57312346
v 0.14239576 0.71760259 -0.57191078
v 0.15066277 0.70922233 -0.56933699
v 0.15885940 0.70088020 -0.56676807
v 0.16698564 0.69257621 -0.56420402
v 0.17642862 0.68550904 -0.56254942
v 0.18864583 0.68083922 -0.56270395
v 0.20160939 0.67674014 -0.56330712
v 0.21390579 0.67202742 -0.56345617
v 0.22842362 0.66903644 -0.56495233
v 0.24229189 0.66542229 -0.56599316
v 0.25548419 0.66119926 -0.56658049
v 0.26797414 0.65638166 -0.56671614
v 0.27973534 0.65098379 -0.56640194
v 0.29151413 0.64557638 -0.56608652
v 0.30409205 0.64071111 -0.56621608
v 0.31591483 0.63527987 -0.56589762
v 0.10134262 0.72407273 -0.58076532
v 0.12433402 0.71355495 -0.58019156
v 0.13060167 0.70336680 -0.57619275
v 0.13608055 0.69263579 -0.57173931
v 0.14344186 0.68379556 -0.56868325
v 0.15344800 0.67740327 -0.56748103
v 0.16482053 0.67221112 -0.56720269
v 0.18041542 0.67055264 -0.56968742
v 0.19542389 0.66824164 -0.57170352
v 0.20910115 0.66471145 -0.57279331
v 0.22357599 0.66171934 -0.57433711
v 0.23813880 0.65867956 -0.57587482
v 0.25278959 0.65559211 -0.57740644
v 0.26677477 0.65189506 -0.57847491
v 0.27930558 0.64704555 -0.57862559
v 0.29187159 0.64217696 -0.57877384
v 0.30447278 0.63728931 -0.57891965
v 0.37934974 0.85263107 -0.55968061
v 0.38670457 0.83915920 -0.55723789
v 0.39317339 0.82527845 -0.55444926
v 0.39544946 0.80912323 -0.54991679
v 0.35744303 0.83646868 -0.56603560
v 0.37189083 0.82750668 -0.56679467
v 0.37666006 0.81278665 -0.56323909
v 0.38049572 0.79770997 -0.55933165
v 0.38337623 0.78229754 -0.55507364
v 0.38278129 0.76520747 -0.54939251
v 0.33565781 0.82045633 -0.57199398
v 0.35394333 0.81402782 -0.57464224
v 0.35456952 0.79709472 -0.56918056
v 0.36071915 0.78359653 -0.56630510
v 0.36678250 0.77018200 -0.56343485
v 0.36860881 0.75459684 -0.55873497
v 0.37278896 0.74049673 -0.55514427
v 0.37516500 0.72563435 -0.55082833
v 0.31399408 0.80459401 -0.57755576
v 0.32810342 0.79591151 -0.57840608
v 0.33501792 0.78295793 -0.57585730
v 0.34104750 0.76961267 -0.57293602
v 0.34535040 0.75544223 -0.56926712
v 0.35036565 0.74183080 -0.56598116
v 0.35694939 0.72919793 -0.56345240
v 0.36430300 0.71706830 -0.56130311
v 0.36905221 0.70371484 -0.55803326
v 0.36428309 0.68584382 -0.55065280
v 0.32391151 0.75713235 -0.58038202
v 0.32975634 0.74400277 -0.57741884
v 0.33716413 0.73184494 -0.57523088
v 0.34451440 0.71974289 -0.57304640
v 0.35012914 0.70683643 -0.57009715
v 0.35988858 0.69612925 -0.56907159
v 0.36109975 0.68127450 -0.56421430
v 0.35784984 0.66452724 -0.55745248
v 0.35436984 0.64800310 -0.55070458
v 0.34522027 0.70137994 -0.58299943
v 0.35160153 0.68900429 -0.58039446
v 0.35535901 0.67546014 -0.57661702
v 0.35471235 0.65999869 -0.57088735
v 0.35387874 0.64471853 -0.56516900
v 0.35327945 0.65626804 -0.58514196
f 1 2 4
f 3 4 14
f 4 5 15
f 5 6 16
f 6 7 17
f 7 8 18
f 8 9 19
f 9 10 20
f 13 14 28
f 14 15 29
f 15 16 30
f 16 17 31
f 17 18 32
f 18 19 33
f 19 20 34
f 20 21 35
f 21 22 36
f 22 23 37
f 23 24 38
f 24 25 39
f 27 28 48
f 28 29 49
f 29 30 50
f 30 31 51
f 31 32 52
f 32 33 53
f 33 34 54
f 34 35 55
f 35 36 56
f 36 37 57
f 37 38 58
f 38 39 59
f 39 40 60
f 40 41 61
f 41 42 62
f 42 43 63
f 48 49 80
f 49 50 81
f 50 51 82
f 51 52 83
f 52 53 84
f 53 54 85
f 54 55 86
f 55 56 87
f 56 57 88
f 57 58 89
f 58 59 90
f 59 60 91
f 60 61 92
f 61 62 93
f 62 63 94
f 63 64 95
f 64 65 96
f 65 66 97
f 66 67 98
f 67 68 99
f 68 69 100
f 69 70 101
f 70 71 102
f 71 72 103
f 72 73 104
f 73 74 105
f 74 75 106
f 75 76 107
f 77 78 110
f 79 80 112
f 80 81 113
f 81 82 114
f 82 83 115
f 83 84 116
f 84 85 117
f 85 86 118
f 86 87 119
f 87 88 120
f 88 89 121
f 89 90 122
f 90 91 123
f 91 92 124
f 92 93 125
f 93 94 126
f 94 95 127
f 95 96 128
f 96 97 129
f 97 98 130
f 98 99 131
f 99 100 132
f 100 101 133
f 101 102 134
f 102 103 135
f 103 104 136
f 104 105 137
f 105 106 138
f 106 107 139
f 107 108 140
f 109 110 141
f 110 111 142
f 112 113 146
f 113 114 147
f 114 115 148
f 115 116 149
f 116 117 150
f 117 118 151
f 118 119 152
f 119 120 153
f 120 121 154
f 121 122 155
f 122 123 156
f 123 124 157
f 124 125 158
f 125 126 159
f 126 127 160
f 127 128 161
f 128 129 162
f 129 130 163
f 130 131 164
f 131 132 165
f 132 133 166
f 133 134 167
f 134 135 168
f 135 136 169
f 136 137 170
f 137 138 171
f 138 139 172
f 139 140 173
f 141 142 177
f 142 143 178
f 143 144 179
f 145 146 181
f 146 147 182
f 147 148 183
f 148 149 184
f 149 150 185
f 150 151 186
f 151 152 187
f 152 153 188
f 153 154 189
f 154 155 190
f 155 156 191
f 156 157 192
f 157 158 193
f 158 159 194
f 159 160 195
f 160 161 196
f 161 162 197
f 162 163 198
f 163 164 199
f 164 165 200
f 165 166 201
f 166 167 202
f 167 168 203
f 168 169 204
f 169 170 205
f 170 171 206
f 171 172 207
f 172 173 208
f 173 174 209
f 175 176 217
f 176 177 218
f 177 178 219
f 178 179 220
f 179 180 221
f 181 182 223
f 182 183 224
f 183 184 225
f 184 185 226
f 185 186 227
f 186 187 228
f 187 188 229
f 188 189 230
f 189 190 231
f 190 191 232
f 191 192 233
f 192 193 234
f 193 194 235
f 194 195 236
f 195 196 237
f 196 197 238
f 197 198 239
f 198 199 240
f 199 200 241
f 200 201 242
f 201 202 243
f 202 203 244
f 203 204 245
f 204 205 246
f 205 206 247
f 206 207 248
f 207 208 249
f 208 209 250
f 209 210 251
f 210 211 252
f 214 215 256
f 215 216 257
f 216 217 258
f 217 218 259
f 218 219 260
f 219 220 261
f 220 221 262
f 221 222 263
f 223 224 265
f 224 225 266
f 225 226 267
f 226 227 268
f 227 228 269
f 228 229 270
f 229 230 271
f 230 231 272
f 231 232 273
f 232 233 274
f 233 234 275
f 234 235 276
f 235 236 277
f 236 237 278
f 237 238 279
f 238 239 280
f 239 240 281
f 240 241 282
f 241 242 283
f 242 243 284
f 243 244 285
f 244 245 286
f 245 246 287
f 246 247 288
f 247 248 289
f 248 249 290
f 249 250 291
f 250 251 292
f 251 252 293
f 252 253 294
f 253 254 295
f 254 255 296
f 255 256 297
f 256 257 298
f 257 258 299
f 258 259 300
f 259 260 301
f 260 261 302
f 261 262 303
f 262 263 304
f 263 264 305
f 272 273 307
f 273 274 308
f 274 275 309
f 275 276 310
f 276 277 311
f 277 278 312
f 278 279 313
f 279 280 314
f 280 281 315
f 281 282 316
f 282 283 317
f 283 284 318
f 284 285 319
f 285 286 320
f 286 287 321
f 287 288 322
f 288 289 323
f 289 290 324
f 290 291 325
f 291 292 326
f 292 293 327
f 293 294 328
f 294 295 329
f 295 296 330
f 296 297 331
f 297 298 332
f 298 299 333
f 299 300 334
f 300 301 335
f 301 302 336
f 302 303 337
f 303 304 338
f 304 305 339
f 305 306 340
f 310 311 342
f 311 312 343
f 312 313 344
f 313 314 345
f 314 315 346
f 315 316 347
f 316 317 348
f 317 318 349
f 318 319 350
f 319 320 351
f 320 321 352
f 321 322 353
f 322 323 354
f 323 324 355
f 324 325 356
f 325 326 357
f 326 327 358
f 327 328 359
f 328 329 360
f 329 330 361
f 330 331 362
f 331 332 363
f 332 333 364
f 333 334 365
f 334 335 366
f 335 336 367
f 336 337 368
f 337 338 369
f 338 339 370
f 339 340 371
f 340 341 372
f 344 345 374
f 345 346 375
f 346 347 376
f 347 348 377
f 348 349 378
f 349 350 379
f 350 351 380
f 351 352 381
f 352 353 382
f 353 354 383
f 354 355 384
f 355 356 385
f 356 357 386
f 357 358 387
f 358 359 388
f 359 360 389
f 360 361 390
f 361 362 391
f 362 363 392
f 363 364 393
f 364 365 394
f 365 366 395
f 366 367 396
f 367 368 397
f 368 369 398
f 369 370 399
f 370 371 400
f 371 372 401
f 372 373 402
f 377 378 404
f 378 379 405
f 379 380 406
f 380 381 407
f 381 382 408
f 382 383 409
f 383 384 410
f 384 385 411
f 385 386 412
f 386 387 413
f 387 388 414
f 388 389 415
f 389 390 416
f 390 391 417
f 391 392 418
f 392 393 419
f 393 394 420
f 394 395 421
f 395 396 422
f 396 397 423
f 397 398 424
f 398 399 425
f 399 400 426
f 400 401 427
f 401 402 428
f 402 403 429
f 406 407 432
f 407 408 433
f 408 409 434
f 409 410 435
f 410 411 436
f 411 412 437
f 412 413 438
f 413 414 439
f 414 415 440
f 415 416 441
f 416 417 442
f 417 418 443
f 418 419 444
f 419 420 445
f 420 421 446
f 421 422 447
f 422 423 448
f 423 424 449
f 424 425 450
f 425 426 451
f 426 427 452
f 427 428 453
f 428 429 454
f 429 430 455
f 430 431 456
f 435 436 458
f 436 437 459
f 437 438 460
f 438 439 461
f 439 440 462
f 440 441 463
f 441 442 464
f 442 443 465
f 443 444 466
f 444 445 467
f 445 446 468
f 446 447 469
f 447 448 470
f 448 449 471
f 449 450 472
f 450 451 473
f 451 452 474
f 452 453 475
f 453 454 476
f 454 455 477
f 455 456 478
f 456 457 479
f 461 462 481
f 462 463 482
f 463 464 483
f 464 465 484
f 465 466 485
f 466 467 486
f 467 468 487
f 468 469 488
f 469 470 489
f 470 471 490
f 471 472 491
f 472 473 492
f 473 474 493
f 474 475 494
f 475 476 495
f 476 477 496
f 477 478 497
f 478 479 498
f 479 480 499
f 484 485 501
f 485 486 502
f 486 487 503
f 487 488 504
f 488 489 505
f 489 490 506
f 490 491 507
f 491 492 508
f 492 493 509
f 493 494 510
f 494 495 511
f 495 496 512
f 496 497 513
f 497 498 514
f 498 499 515
f 499 500 516
f 505 506 518
f 506 507 519
f 507 508 520
f 508 509 521
f 509 510 522
f 510 511 523
f 511 512 524
f 512 513 525
f 513 514 526
f 514 515 527
f 515 516 528
f 516 517 529
f 523 524 530
f 528 529 531
f 2 5 4
f 3 14 13
f 4 15 14
f 5 16 15
f 6 17 16
f 7 18 17
f 8 19 18
f 9 20 19
f 10 21 20
f 11 22 21
f 12 23 22
f 13 28 27
f 14 29 28
f 15 30 29
f 16 31 30
f 17 32 31
f 18 33 32
f 19 34 33
f 20 35 34
f 21 36 35
f 22 37 36
f 23 38 37
f 24 39 38
f 25 40 39
f 26 41 40
f 28 49 48
f 29 50 49
f 30 51 50
f 31 52 51
f 32 53 52
f 33 54 53
f 34 55 54
f 35 56 55
f 36 57 56
f 37 58 57
f 38 59 58
f 39 60 59
f 40 61 60
f 41 62 61
f 42 63 62
f 43 64 63
f 44 65 64
f 45 66 65
f 46 76 75
f 47 78 77
f 48 80 79
f 49 81 80
f 50 82 81
f 51 83 82
f 52 84 83
f 53 85 84
f 54 86 85
f 55 87 86
f 56 88 87
f 57 89 88
f 58 90 89
f 59 91 90
f 60 92 91
f 61 93 92
f 62 94 93
f 63 95 94
f 64 96 95
f 65 97 96
f 66 98 97
f 67 99 98
f 68 100 99
f 69 101 100
f 70 102 101
f 71 103 102
f 72 104 103
f 73 105 104
f 74 106 105
f 75 107 106
f 78 111 110
f 80 113 112
f 81 114 113
f 82 115 114
f 83 116 115
f 84 117 116
f 85 118 117
f 86 119 118
f 87 120 119
f 88 121 120
f 89 122 121
f 90 123 122
f 91 124 123
f 92 125 124
f 93 126 125
f 94 127 126
f 95 128 127
f 96 129 128
f 97 130 129
f 98 131 130
f 99 132 131
f 100 133 132
f 101 134 133
f 102 135 134
f 103 136 135
f 104 137 136
f 105 138 137
f 106 139 138
f 107 140 139
f 110 142 141
f 111 143 142
f 112 146 145
f 113 147 146
f 114 148 147
f 115 149 148
f 116 150 149
f 117 151 150
f 118 152 151
f 119 153 152
f 120 154 153
f 121 155 154
f 122 156 155
f 123 157 156
f 124 158 157
f 125 159 158
f 126 160 159
f 127 161 160
f 128 162 161
f 129 163 162
f 130 164 163
f 131 165 164
f 132 166 165
f 133 167 166
f 134 168 167
f 135 169 168
f 136 170 169
f 137 171 170
f 138 172 171
f 139 173 172
f 140 174 173
f 141 177 176
f 142 178 177
f 143 179 178
f 146 182 181
f 147 183 182
f 148 184 183
f 149 185 184
f 150 186 185
f 151 187 186
f 152 188 187
f 153 189 188
f 154 190 189
f 155 191 190
f 156 192 191
f 157 193 192
f 158 194 193
f 159 195 194
f 160 196 195
f 161 197 196
f 162 198 197
f 163 199 198
f 164 200 199
f 165 201 200
f 166 202 201
f 167 203 202
f 168 204 203
f 169 205 204
f 170 206 205
f 171 207 206
f 172 208 207
f 173 209 208
f 174 210 209
f 175 217 216
f 176 218 217
f 177 219 218
f 178 220 219
f 179 221 220
f 180 222 221
f 182 224 223
f 183 225 224
f 184 226 225
f 185 227 226
f 186 228 227
f 187 229 228
f 188 230 229
f 189 231 230
f 190 232 231
f 191 233 232
f 192 234 233
f 193 235 234
f 194 236 235
f 195 237 236
f 196 238 237
f 197 239 238
f 198 240 239
f 199 241 240
f 200 242 241
f 201 243 242
f 202 244 243
f 203 245 244
f 204 246 245
f 205 247 246
f 206 248 247
f 207 249 248
f 208 250 249
f 209 251 250
f 210 252 251
f 211 253 252
f 212 254 253
f 213 255 254
f 214 256 255
f 215 257 256
f 216 258 257
f 217 259 258
f 218 260 259
f 219 261 260
f 220 262 261
f 221 263 262
f 222 264 263
f 224 266 265
f 225 267 266
f 226 268 267
f 227 269 268
f 228 270 269
f 229 271 270
f 230 272 271
f 231 273 272
f 232 274 273
f 233 275 274
f 234 276 275
f 235 277 276
f 236 278 277
f 237 279 278
f 238 280 279
f 239 281 280
f 240 282 281
f 241 283 282
f 242 284 283
f 243 285 284
f 244 286 285
f 245 287 286
f 246 288 287
f 247 289 288
f 248 290 289
f 249 291 290
f 250 292 291
f 251 293 292
f 252 294 293
f 253 295 294
f 254 296 295
f 255 297 296
f 256 298 297
f 257 299 298
f 258 300 299
f 259 301 300
f 260 302 301
f 261 303 302
f 262 304 303
f 263 305 304
f 264 306 305
f 274 309 308
f 275 310 309
f 276 311 310
f 277 312 311
f 278 313 312
f 279 314 313
f 280 315 314
f 281 316 315
f 282 317 316
f 283 318 317
f 284 319 318
f 285 320 319
f 286 321 320
f 287 322 321
f 288 323 322
f 289 324 323
f 290 325 324
f 291 326 325
f 292 327 326
f 293 328 327
f 294 329 328
f 295 330 329
f 296 331 330
f 297 332 331
f 298 333 332
f 299 334 333
f 300 335 334
f 301 336 335
f 302 337 336
f 303 338 337
f 304 339 338
f 305 340 339
f 306 341 340
f 312 344 343
f 313 345 344
f 314 346 345
f 315 347 346
f 316 348 347
f 317 349 348
f 318 350 349
f 319 351 350
f 320 352 351
f 321 353 352
f 322 354 353
f 323 355 354
f 324 356 355
f 325 357 356
f 326 358 357
f 327 359 358
f 328 360 359
f 329 361 360
f 330 362 361
f 331 363 362
f 332 364 363
f 333 365 364
f 334 366 365
f 335 367 366
f 336 368 367
f 337 369 368
f 338 370 369
f 339 371 370
f 340 372 371
f 341 373 372
f 346 376 375
f 347 377 376
f 348 378 377
f 349 379 378
f 350 380 379
f 351 381 380
f 352 382 381
f 353 383 382
f 354 384 383
f 355 385 384
f 356 386 385
f 357 387 386
f 358 388 387
f 359 389 388
f 360 390 389
f 361 391 390
f 362 392 391
f 363 393 392
f 364 394 393
f 365 395 394
f 366 396 395
f 367 397 396
f 368 398 397
f 369 399 398
f 370 400 399
f 371 401 400
f 372 402 401
f 373 403 402
f 378 405 404
f 379 406 405
f 380 407 406
f 381 408 407
f 382 409 408
f 383 410 409
f 384 411 410
f 385 412 411
f 386 413 412
f 387 414 413
f 388 415 414
f 389 416 415
f 390 417 416
f 391 418 417
f 392 419 418
f 393 420 419
f 394 421 420
f 395 422 421
f 396 423 422
f 397 424 423
f 398 425 424
f 399 426 425
f 400 427 426
f 401 428 427
f 402 429 428
f 403 430 429
f 407 433 432
f 408 434 433
f 409 435 434
f 410 436 435
f 411 437 436
f 412 438 437
f 413 439 438
f 414 440 439
f 415 441 440
f 416 442 441
f 417 443 442
f 418 444 443
f 419 445 444
f 420 446 445
f 421 447 446
f 422 448 447
f 423 449 448
f 424 450 449
f 425 451 450
f 426 452 451
f 427 453 452
f 428 454 453
f 429 455 454
f 430 456 455
f 436 459 458
f 437 460 459
f 438 461 460
f 439 462 461
f 440 463 462
f 441 464 463
f 442 465 464
f 443 466 465
f 444 467 466
f 445 468 467
f 446 469 468
f 447 470 469
f 448 471 470
f 449 472 471
f 450 473 472
f 451 474 473
f 452 475 474
f 453 476 475
f 454 477 476
f 455 478 477
f 456 479 478
f 462 482 481
f 463 483 482
f 464 484 483
f 465 485 484
f 466 486 485
f 467 487 486
f 468 488 487
f 469 489 488
f 470 490 489
f 471 491 490
f 472 492 491
f 473 493 492
f 474 494 493
f 475 495 494
f 476 496 495
f 477 497 496
f 478 498 497
f 479 499 498
f 485 502 501
f 486 503 502
f 487 504 503
f 488 505 504
f 489 506 505
f 490 507 506
f 491 508 507
f 492 509 508
f 493 510 509
f 494 511 510
f 495 512 511
f 496 513 512
f 497 514 513
f 498 515 514
f 499 516 515
f 500 517 516
f 507 520 519
f 508 521 520
f 509 522 521
f 510 523 522
f 511 524 523
f 512 525 524
f 513 526 525
f 514 527 526
f 515 528 527
f 516 529 528
f 533 534 543
f 534 535 544
f 535 536 545
f 536 537 546
f 537 538 547
f 538 539 548
f 543 544 560
f 544 545 561
f 545 546 562
f 546 547 563
f 547 548 564
f 548 549 565
f 549 550 566
f 550 551 567
f 551 552 568
f 552 553 569
f 553 554 570
f 554 555 571
f 555 556 572
f 556 557 573
f 558 559 588
f 560 561 591
f 561 562 592
f 562 563 593
f 563 564 594
f 564 565 595
f 565 566 596
f 566 567 597
f 567 568 598
f 568 569 599
f 569 570 600
f 570 571 601
f 571 572 602
f 572 573 603
f 573 574 604
f 574 575 605
f 575 576 606
f 576 577 607
f 577 578 608
f 578 579 609
f 579 580 610
f 580 581 611
f 581 582 612
f 582 583 613
f 583 584 614
f 584 585 615
f 585 586 616
f 586 587 617
f 589 590 620
f 593 594 622
f 594 595 623
f 595 596 624
f 596 597 625
f 597 598 626
f 598 599 627
f 599 600 628
f 600 601 629
f 601 602 630
f 602 603 631
f 603 604 632
f 604 605 633
f 605 606 634
f 606 607 635
f 607 608 636
f 608 609 637
f 609 610 638
f 610 611 639
f 611 612 640
f 612 613 641
f 613 614 642
f 614 615 643
f 615 616 644
f 616 617 645
f 617 618 646
f 618 619 647
f 619 620 648
f 620 621 649
f 623 624 652
f 624 625 653
f 625 626 654
f 626 627 655
f 627 628 656
f 628 629 657
f 629 630 658
f 630 631 659
f 631 632 660
f 632 633 661
f 633 634 662
f 634 635 663
f 635 636 664
f 636 637 665
f 637 638 666
f 638 639 667
f 639 640 668
f 640 641 669
f 641 642 670
f 642 643 671
f 643 644 672
f 644 645 673
f 645 646 674
f 646 647 675
f 647 648 676
f 648 649 677
f 649 650 678
f 650 651 679
f 652 653 682
f 653 654 683
f 654 655 684
f 655 656 685
f 656 657 686
f 657 658 687
f 658 659 688
f 659 660 689
f 660 661 690
f 661 662 691
f 662 663 692
f 663 664 693
f 664 665 694
f 665 666 695
f 666 667 696
f 667 668 697
f 668 669 698
f 669 670 699
f 670 671 700
f 671 672 701
f 672 673 702
f 673 674 703
f 674 675 704
f 675 676 705
f 676 677 706
f 677 678 707
f 678 679 708
f 679 680 709
f 681 682 715
f 682 683 716
f 683 684 717
f 684 685 718
f 685 686 719
f 686 687 720
f 687 688 721
f 688 689 722
f 689 690 723
f 690 691 724
f 691 692 725
f 692 693 726
f 693 694 727
f 694 695 728
f 695 696 729
f 696 697 730
f 697 698 731
f 698 699 732
f 699 700 733
f 700 701 734
f 701 702 735
f 702 703 736
f 703 704 737
f 704 705 738
f 705 706 739
f 706 707 740
f 707 708 741
f 708 709 742
f 709 710 743
f 710 711 744
f 712 713 748
f 713 714 749
f 714 715 750
f 715 716 751
f 716 717 752
f 717 718 753
f 718 719 754
f 719 720 755
f 720 721 756
f 721 722 757
f 722 723 758
f 723 724 759
f 724 725 760
f 725 726 761
f 726 727 762
f 727 728 763
f 728 729 764
f 729 730 765
f 730 731 766
f 731 732 767
f 732 733 768
f 733 734 769
f 734 735 770
f 735 736 771
f 736 737 772
f 737 738 773
f 738 739 774
f 739 740 775
f 740 741 776
f 741 742 777
f 742 743 778
f 743 744 779
f 744 745 780
f 745 746 781
f 747 748 785
f 748 749 786
f 749 750 787
f 750 751 788
f 751 752 789
f 752 753 790
f 753 754 791
f 754 755 792
f 755 756 793
f 756 757 794
f 757 758 795
f 758 759 796
f 759 760 797
f 760 761 798
f 761 762 799
f 762 763 800
f 763 764 801
f 764 765 802
f 765 766 803
f 766 767 804
f 767 768 805
f 768 769 806
f 769 770 807
f 770 771 808
f 771 772 809
f 772 773 810
f 773 774 811
f 774 775 812
f 775 776 813
f 776 777 814
f 777 778 815
f 778 779 816
f 779 780 817
f 780 781 818
f 781 782 819
f 782 783 820
f 785 786 823
f 786 787 824
f 787 788 825
f 788 789 826
f 789 790 827
f 790 791 828
f 791 792 829
f 792 793 830
f 793 794 831
f 794 795 832
f 795 796 833
f 796 797 834
f 797 798 835
f 798 799 836
f 799 800 837
f 800 801 838
f 801 802 839
f 802 803 840
f 803 804 841
f 804 805 842
f 805 806 843
f 806 807 844
f 807 808 845
f 808 809 846
f 809 810 847
f 810 811 848
f 811 812 849
f 812 813 850
f 813 814 851
f 814 815 852
f 815 816 853
f 816 817 854
f 817 818 855
f 818 819 856
f 819 820 857
f 820 821 858
f 823 824 862
f 824 825 863
f 825 826 864
f 826 827 865
f 827 828 866
f 842 843 867
f 843 844 868
f 844 845 869
f 845 846 870
f 846 847 871
f 847 848 872
f 848 849 873
f 849 850 874
f 850 851 875
f 851 852 876
f 852 853 877
f 853 854 878
f 854 855 879
f 855 856 880
f 856 857 881
f 857 858 882
f 858 859 883
f 859 860 884
f 870 871 887
f 871 872 888
f 872 873 889
f 873 874 890
f 874 875 891
f 875 876 892
f 876 877 893
f 877 878 894
f 878 879 895
f 879 880 896
f 880 881 897
f 881 882 898
f 882 883 899
f 883 884 900
f 884 885 901
f 885 886 902
f 893 894 904
f 894 895 905
f 895 896 906
f 896 897 907
f 897 898 908
f 898 899 909
f 899 900 910
f 900 901 911
f 901 902 912
f 902 903 913
f 909 910 916
f 910 911 917
f 911 912 918
f 912 913 919
f 913 914 920
f 914 915 921
f 920 921 922
f 532 541 540
f 533 543 542
f 534 544 543
f 535 545 544
f 536 546 545
f 537 547 546
f 538 548 547
f 539 549 548
f 544 561 560
f 545 562 561
f 546 563 562
f 547 564 563
f 548 565 564
f 549 566 565
f 550 567 566
f 551 568 567
f 552 569 568
f 553 570 569
f 554 571 570
f 555 572 571
f 556 573 572
f 557 574 573
f 559 589 588
f 561 592 591
f 562 593 592
f 563 594 593
f 564 595 594
f 565 596 595
f 566 597 596
f 567 598 597
f 568 599 598
f 569 600 599
f 570 601 600
f 571 602 601
f 572 603 602
f 573 604 603
f 574 605 604
f 575 606 605
f 576 607 606
f 577 608 607
f 578 609 608
f 579 610 609
f 580 611 610
f 581 612 611
f 582 613 612
f 583 614 613
f 584 615 614
f 585 616 615
f 586 617 616
f 587 618 617
f 589 620 619
f 594 623 622
f 595 624 623
f 596 625 624
f 597 626 625
f 598 627 626
f 599 628 627
f 600 629 628
f 601 630 629
f 602 631 630
f 603 632 631
f 604 633 632
f 605 634 633
f 606 635 634
f 607 636 635
f 608 637 636
f 609 638 637
f 610 639 638
f 611 640 639
f 612 641 640
f 613 642 641
f 614 643 642
f 615 644 643
f 616 645 644
f 617 646 645
f 618 647 646
f 619 648 647
f 620 649 648
f 621 650 649
f 624 653 652
f 625 654 653
f 626 655 654
f 627 656 655
f 628 657 656
f 629 658 657
f 630 659 658
f 631 660 659
f 632 661 660
f 633 662 661
f 634 663 662
f 635 664 663
f 636 665 664
f 637 666 665
f 638 667 666
f 639 668 667
f 640 669 668
f 641 670 669
f 642 671 670
f 643 672 671
f 644 673 672
f 645 674 673
f 646 675 674
f 647 676 675
f 648 677 676
f 649 678 677
f 650 679 678
f 651 680 679
f 653 683 682
f 654 684 683
f 655 685 684
f 656 686 685
f 657 687 686
f 658 688 687
f 659 689 688
f 660 690 689
f 661 691 690
f 662 692 691
f 663 693 692
f 664 694 693
f 665 695 694
f 666 696 695
f 667 697 696
f 668 698 697
f 669 699 698
f 670 700 699
f 671 701 700
f 672 702 701
f 673 703 702
f 674 704 703
f 675 705 704
f 676 706 705
f 677 707 706
f 678 708 707
f 679 709 708
f 680 710 709
f 681 715 714
f 682 716 715
f 683 717 716
f 684 718 717
f 685 719 718
f 686 720 719
f 687 721 720
f 688 722 721
f 689 723 722
f 690 724 723
f 691 725 724
f 692 726 725
f 693 727 726
f 694 728 727
f 695 729 728
f 696 730 729
f 697 731 730
f 698 732 731
f 699 733 732
f 700 734 733
f 701 735 734
f 702 736 735
f 703 737 736
f 704 738 737
f 705 739 738
f 706 740 739
f 707 741 740
f 708 742 741
f 709 743 742
f 710 744 743
f 711 745 744
f 712 748 747
f 713 749 748
f 714 750 749
f 715 751 750
f 716 752 751
f 717 753 752
f 718 754 753
f 719 755 754
f 720 756 755
f 721 757 756
f 722 758 757
f 723 759 758
f 724 760 759
f 725 761 760
f 726 762 761
f 727 763 762
f 728 764 763
f 729 765 764
f 730 766 765
f 731 767 766
f 732 768 767
f 733 769 768
f 734 770 769
f 735 771 770
f 736 772 771
f 737 773 772
f 738 774 773
f 739 775 774
f 740 776 775
f 741 777 776
f 742 778 777
f 743 779 778
f 744 780 779
f 745 781 780
f 746 782 781
f 747 785 784
f 748 786 785
f 749 787 786
f 750 788 787
f 751 789 788
f 752 790 789
f 753 791 790
f 754 792 791
f 755 793 792
f 756 794 793
f 757 795 794
f 758 796 795
f 759 797 796
f 760 798 797
f 761 799 798
f 762 800 799
f 763 801 800
f 764 802 801
f 765 803 802
f 766 804 803
f 767 805 804
f 768 806 805
f 769 807 806
f 770 808 807
f 771 809 808
f 772 810 809
f 773 811 810
f 774 812 811
f 775 813 812
f 776 814 813
f 777 815 814
f 778 816 815
f 779 817 816
f 780 818 817
f 781 819 818
f 782 820 819
f 783 821 820
f 785 823 822
f 786 824 823
f 787 825 824
f 788 826 825
f 789 827 826
f 790 828 827
f 791 829 828
f 792 830 829
f 793 831 830
f 794 832 831
f 795 833 832
f 802 840 839
f 803 841 840
f 804 842 841
f 805 843 842
f 806 844 843
f 807 845 844
f 808 846 845
f 809 847 846
f 810 848 847
f 811 849 848
f 812 850 849
f 813 851 850
f 814 852 851
f 815 853 852
f 816 854 853
f 817 855 854
f 818 856 855
f 819 857 856
f 820 858 857
f 821 859 858
f 823 862 861
f 824 863 862
f 825 864 863
f 826 865 864
f 844 869 868
f 845 870 869
f 846 871 870
f 847 872 871
f 848 873 872
f 849 874 873
f 850 875 874
f 851 876 875
f 852 877 876
f 853 878 877
f 854 879 878
f 855 880 879
f 856 881 880
f 857 882 881
f 858 883 882
f 859 884 883
f 860 885 884
f 873 890 889
f 874 891 890
f 875 892 891
f 876 893 892
f 877 894 893
f 878 895 894
f 879 896 895
f 880 897 896
f 881 898 897
f 882 899 898
f 883 900 899
f 884 901 900
f 885 902 901
f 895 906 905
f 896 907 906
f 897 908 907
f 898 909 908
f 899 910 909
f 900 911 910
f 901 912 911
f 902 913 912
f 903 914 913
f 911 918 917
f 912 919 918
f 913 920 919
f 914 921 920
f 923 924 929
f 925 926 937
f 926 927 938
f 929 930 947
f 930 931 948
f 934 935 955
f 935 936 956
f 936 937 957
f 937 938 958
f 938 939 959
f 939 940 960
f 940 941 961
f 941 942 962
f 943 944 964
f 944 945 965
f 945 946 966
f 948 949 969
f 949 950 970
f 951 952 974
f 952 953 975
f 953 954 976
f 954 955 977
f 955 956 978
f 956 957 979
f 957 958 980
f 958 959 981
f 959 960 982
f 960 961 983
f 961 962 984
f 962 963 985
f 963 964 986
f 964 965 987
f 965 966 988
f 966 967 989
f 967 968 990
f 968 969 991
f 969 970 992
f 970 971 993
f 971 972 994
f 974 975 999
f 975 976 1000
f 976 977 1001
f 977 978 1002
f 978 979 1003
f 979 980 1004
f 980 981 1005
f 981 982 1006
f 982 983 1007
f 983 984 1008
f 984 985 1009
f 985 986 1010
f 986 987 1011
f 987 988 1012
f 988 989 1013
f 989 990 1014
f 990 991 1015
f 991 992 1016
f 992 993 1017
f 993 994 1018
f 994 995 1019
f 998 999 1024
f 999 1000 1025
f 1000 1001 1026
f 1001 1002 1027
f 1002 1003 1028
f 1003 1004 1029
f 1004 1005 1030
f 1005 1006 1031
f 1006 1007 1032
f 1007 1008 1033
f 1008 1009 1034
f 1009 1010 1035
f 1010 1011 1036
f 1011 1012 1037
f 1012 1013 1038
f 1013 1014 1039
f 1014 1015 1040
f 1015 1016 1041
f 1016 1017 1042
f 1017 1018 1043
f 1018 1019 1044
f 1019 1020 1045
f 1020 1021 1046
f 1022 1023 1049
f 1023 1024 1050
f 1024 1025 1051
f 1025 1026 1052
f 1026 1027 1053
f 1027 1028 1054
f 1028 1029 1055
f 1029 1030 1056
f 1030 1031 1057
f 1031 1032 1058
f 1032 1033 1059
f 1033 1034 1060
f 1034 1035 1061
f 1035 1036 1062
f 1036 1037 1063
f 1037 1038 1064
f 1038 1039 1065
f 1039 1040 1066
f 1040 1041 1067
f 1041 1042 1068
f 1042 1043 1069
f 1043 1044 1070
f 1044 1045 1071
f 1045 1046 1072
f 1046 1047 1073
f 1047 1048 1074
f 1049 1050 1077
f 1050 1051 1078
f 1051 1052 1079
f 1052 1053 1080
f 1053 1054 1081
f 1054 1055 1082
f 1055 1056 1083
f 1056 1057 1084
f 1057 1058 1085
f 1058 1059 1086
f 1059 1060 1087
f 1060 1061 1088
f 1061 1062 1089
f 1062 1063 1090
f 1063 1064 1091
f 1064 1065 1092
f 1065 1066 1093
f 1066 1067 1094
f 1067 1068 1095
f 1068 1069 1096
f 1069 1070 1097
f 1070 1071 1098
f 1071 1072 1099
f 1072 1073 1100
f 1073 1074 1101
f 1074 1075 1102
f 1075 1076 1103
f 1077 1078 1106
f 1078 1079 1107
f 1079 1080 1108
f 1080 1081 1109
f 1081 1082 1110
f 1082 1083 1111
f 1083 1084 1112
f 1084 1085 1113
f 1085 1086 1114
f 1086 1087 1115
f 1087 1088 1116
f 1088 1089 1117
f 1089 1090 1118
f 1090 1091 1119
f 1091 1092 1120
f 1092 1093 1121
f 1093 1094 1122
f 1094 1095 1123
f 1095 1096 1124
f 1096 1097 1125
f 1097 1098 1126
f 1098 1099 1127
f 1102 1103 1131
f 1103 1104 1132
f 1104 1105 1133
f 1106 1107 1135
f 1107 1108 1136
f 1108 1109 1137
f 1109 1110 1138
f 1110 1111 1139
f 1111 1112 1140
f 1112 1113 1141
f 1113 1114 1142
f 1114 1115 1143
f 1115 1116 1144
f 1116 1117 1145
f 1117 1118 1146
f 1118 1119 1147
f 1119 1120 1148
f 1120 1121 1149
f 1121 1122 1150
f 1122 1123 1151
f 1123 1124 1152
f 1124 1125 1153
f 1125 1126 1154
f 1126 1127 1155
f 1127 1128 1156
f 1128 1129 1157
f 1129 1130 1158
f 1130 1131 1159
f 1132 1133 1161
f 1133 1134 1162
f 1135 1136 1165
f 1136 1137 1166
f 1137 1138 1167
f 1138 1139 1168
f 1139 1140 1169
f 1140 1141 1170
f 1141 1142 1171
f 1142 1143 1172
f 1143 1144 1173
f 1144 1145 1174
f 1145 1146 1175
f 1146 1147 1176
f 1147 1148 1177
f 1148 1149 1178
f 1149 1150 1179
f 1150 1151 1180
f 1151 1152 1181
f 1152 1153 1182
f 1153 1154 1183
f 1154 1155 1184
f 1155 1156 1185
f 1156 1157 1186
f 1157 1158 1187
f 1158 1159 1188
f 1159 1160 1189
f 1160 1161 1190
f 1161 1162 1191
f 1162 1163 1192
f 1163 1164 1193
f 1165 1166 1197
f 1166 1167 1198
f 1167 1168 1199
f 1168 1169 1200
f 1169 1170 1201
f 1170 1171 1202
f 1171 1172 1203
f 1172 1173 1204
f 1173 1174 1205
f 1174 1175 1206
f 1175 1176 1207
f 1176 1177 1208
f 1177 1178 1209
f 1178 1179 1210
f 1179 1180 1211
f 1180 1181 1212
f 1181 1182 1213
f 1182 1183 1214
f 1183 1184 1215
f 1184 1185 1216
f 1185 1186 1217
f 1186 1187 1218
f 1187 1188 1219
f 1188 1189 1220
f 1189 1190 1221
f 1190 1191 1222
f 1191 1192 1223
f 1192 1193 1224
f 1193 1194 1225
f 1194 1195 1226
f 1196 1197 1227
f 1198 1199 1229
f 1199 1200 1230
f 1200 1201 1231
f 1201 1202 1232
f 1202 1203 1233
f 1203 1204 1234
f 1204 1205 1235
f 1205 1206 1236
f 1206 1207 1237
f 1207 1208 1238
f 1208 1209 1239
f 1209 1210 1240
f 1210 1211 1241
f 1211 1212 1242
f 1212 1213 1243
f 1213 1214 1244
f 1214 1215 1245
f 1215 1216 1246
f 1216 1217 1247
f 1217 1218 1248
f 1218 1219 1249
f 1219 1220 1250
f 1220 1221 1251
f 1221 1222 1252
f 1222 1223 1253
f 1223 1224 1254
f 1224 1225 1255
f 1225 1226 1256
f 923 929 928
f 924 930 929
f 925 937 936
f 926 938 937
f 927 939 938
f 930 948 947
f 931 949 948
f 932 953 952
f 933 954 953
f 934 955 954
f 935 956 955
f 936 957 956
f 937 958 957
f 938 959 958
f 939 960 959
f 940 961 960
f 941 962 961
f 944 965 964
f 945 966 965
f 946 967 966
f 949 970 969
f 952 975 974
f 953 976 975
f 954 977 976
f 955 978 977
f 956 979 978
f 957 980 979
f 958 981 980
f 959 982 981
f 960 983 982
f 961 984 983
f 962 985 984
f 963 986 985
f 964 987 986
f 965 988 987
f 966 989 988
f 967 990 989
f 968 991 990
f 969 992 991
f 970 993 992
f 971 994 993
f 972 995 994
f 973 997 996
f 975 1000 999
f 976 1001 1000
f 977 1002 1001
f 978 1003 1002
f 979 1004 1003
f 980 1005 1004
f 981 1006 1005
f 982 1007 1006
f 983 1008 1007
f 984 1009 1008
f 985 1010 1009
f 986 1011 1010
f 987 1012 1011
f 988 1013 1012
f 989 1014 1013
f 990 1015 1014
f 991 1016 1015
f 992 1017 1016
f 993 1018 1017
f 994 1019 1018
f 995 1020 1019
f 998 1024 1023
f 999 1025 1024
f 1000 1026 1025
f 1001 1027 1026
f 1002 1028 1027
f 1003 1029 1028
f 1004 1030 1029
f 1005 1031 1030
f 1006 1032 1031
f 1007 1033 1032
f 1008 1034 1033
f 1009 1035 1034
f 1010 1036 1035
f 1011 1037 1036
f 1012 1038 1037
f 1013 1039 1038
f 1014 1040 1039
f 1015 1041 1040
f 1016 1042 1041
f 1017 1043 1042
f 1018 1044 1043
f 1019 1045 1044
f 1020 1046 1045
f 1021 1047 1046
f 1023 1050 1049
f 1024 1051 1050
f 1025 1052 1051
f 1026 1053 1052
f 1027 1054 1053
f 1028 1055 1054
f 1029 1056 1055
f 1030 1057 1056
f 1031 1058 1057
f 1032 1059 1058
f 1033 1060 1059
f 1034 1061 1060
f 1035 1062 1061
f 1036 1063 1062
f 1037 1064 1063
f 1038 1065 1064
f 1039 1066 1065
f 1040 1067 1066
f 1041 1068 1067
f 1042 1069 1068
f 1043 1070 1069
f 1044 1071 1070
f 1045 1072 1071
f 1046 1073 1072
f 1047 1074 1073
f 1048 1075 1074
f 1050 1078 1077
f 1051 1079 1078
f 1052 1080 1079
f 1053 1081 1080
f 1054 1082 1081
f 1055 1083 1082
f 1056 1084 1083
f 1057 1085 1084
f 1058 1086 1085
f 1059 1087 1086
f 1060 1088 1087
f 1061 1089 1088
f 1062 1090 1089
f 1063 1091 1090
f 1064 1092 1091
f 1065 1093 1092
f 1066 1094 1093
f 1067 1095 1094
f 1068 1096 1095
f 1069 1097 1096
f 1070 1098 1097
f 1071 1099 1098
f 1072 1100 1099
f 1073 1101 1100
f 1074 1102 1101
f 1075 1103 1102
f 1076 1104 1103
f 1078 1107 1106
f 1079 1108 1107
f 1080 1109 1108
f 1081 1110 1109
f 1082 1111 1110
f 1083 1112 1111
f 1084 1113 1112
f 1085 1114 1113
f 1086 1115 1114
f 1087 1116 1115
f 1088 1117 1116
f 1089 1118 1117
f 1090 1119 1118
f 1091 1120 1119
f 1092 1121 1120
f 1093 1122 1121
f 1094 1123 1122
f 1095 1124 1123
f 1096 1125 1124
f 1097 1126 1125
f 1098 1127 1126
f 1099 1128 1127
f 1103 1132 1131
f 1104 1133 1132
f 1105 1134 1133
f 1107 1136 1135
f 1108 1137 1136
f 1109 1138 1137
f 1110 1139 1138
f 1111 1140 1139
f 1112 1141 1140
f 1113 1142 1141
f 1114 1143 1142
f 1115 1144 1143
f 1116 1145 1144
f 1117 1146 1145
f 1118 1147 1146
f 1119 1148 1147
f 1120 1149 1148
f 1121 1150 1149
f 1122 1151 1150
f 1123 1152 1151
f 1124 1153 1152
f 1125 1154 1153
f 1126 1155 1154
f 1127 1156 1155
f 1128 1157 1156
f 1129 1158 1157
f 1130 1159 1158
f 1131 1160 1159
f 1133 1162 1161
f 1134 1163 1162
f 1136 1166 1165
f 1137 1167 1166
f 1138 1168 1167
f 1139 1169 1168
f 1140 1170 1169
f 1141 1171 1170
f 1142 1172 1171
f 1143 1173 1172
f 1144 1174 1173
f 1145 1175 1174
f 1146 1176 1175
f 1147 1177 1176
f 1148 1178 1177
f 1149 1179 1178
f 1150 1180 1179
f 1151 1181 1180
f 1152 1182 1181
f 1153 1183 1182
f 1154 1184 1183
f 1155 1185 1184
f 1156 1186 1185
f 1157 1187 1186
f 1158 1188 1187
f 1159 1189 1188
f 1160 1190 1189
f 1161 1191 1190
f 1162 1192 1191
f 1163 1193 1192
f 1164 1194 1193
f 1165 1197 1196
f 1166 1198 1197
f 1167 1199 1198
f 1168 1200 1199
f 1169 1201 1200
f 1170 1202 1201
f 1171 1203 1202
f 1172 1204 1203
f 1173 1205 1204
f 1174 1206 1205
f 1175 1207 1206
f 1176 1208 1207
f 1177 1209 1208
f 1178 1210 1209
f 1179 1211 1210
f 1180 1212 1211
f 1181 1213 1212
f 1182 1214 1213
f 1183 1215 1214
f 1184 1216 1215
f 1185 1217 1216
f 1186 1218 1217
f 1187 1219 1218
f 1188 1220 1219
f 1189 1221 1220
f 1190 1222 1221
f 1191 1223 1222
f 1192 1224 1223
f 1193 1225 1224
f 1194 1226 1225
f 1197 1228 1227
f 1200 1231 1230
f 1201 1232 1231
f 1202 1233 1232
f 1203 1234 1233
f 1204 1235 1234
f 1205 1236 1235
f 1206 1237 1236
f 1207 1238 1237
f 1208 1239 1238
f 1209 1240 1239
f 1210 1241 1240
f 1211 1242 1241
f 1212 1243 1242
f 1213 1244 1243
f 1223 1254 1253
f 1224 1255 1254
f 1225 1256 1255
f 1257 1258 1260
f 1260 1261 1265
f 1262 1263 1268
f 1263 1264 1269
f 1264 1265 1270
f 1265 1266 1271
f 1268 1269 1274
f 1269 1270 1275
f 1270 1271 1276
f 1271 1272 1277
f 1272 1273 1278
f 1274 1275 1282
f 1275 1276 1283
f 1276 1277 1284
f 1277 1278 1285
f 1278 1279 1286
f 1279 1280 1287
f 1280 1281 1288
f 1283 1284 1292
f 1284 1285 1293
f 1285 1286 1294
f 1286 1287 1295
f 1287 1288 1296
f 1288 1289 1297
f 1289 1290 1298
f 1292 1293 1302
f 1293 1294 1303
f 1294 1295 1304
f 1295 1296 1305
f 1296 1297 1306
f 1297 1298 1307
f 1298 1299 1308
f 1299 1300 1309
f 1300 1301 1310
f 1302 1303 1315
f 1303 1304 1316
f 1304 1305 1317
f 1305 1306 1318
f 1306 1307 1319
f 1307 1308 1320
f 1308 1309 1321
f 1309 1310 1322
f 1310 1311 1323
f 1314 1315 1331
f 1315 1316 1332
f 1316 1317 1333
f 1317 1318 1334
f 1318 1319 1335
f 1319 1320 1336
f 1320 1321 1337
f 1321 1322 1338
f 1322 1323 1339
f 1323 1324 1340
f 1324 1325 1341
f 1325 1326 1342
f 1327 1328 1346
f 1328 1329 1347
f 1329 1330 1348
f 1330 1331 1349
f 1331 1332 1350
f 1332 1333 1351
f 1333 1334 1352
f 1334 1335 1353
f 1335 1336 1354
f 1336 1337 1355
f 1337 1338 1356
f 1338 1339 1357
f 1339 1340 1358
f 1340 1341 1359
f 1341 1342 1360
f 1342 1343 1361
f 1344 1345 1363
f 1346 1347 1364
f 1347 1348 1365
f 1348 1349 1366
f 1349 1350 1367
f 1350 1351 1368
f 1351 1352 1369
f 1352 1353 1370
f 1353 1354 1371
f 1354 1355 1372
f 1355 1356 1373
f 1356 1357 1374
f 1357 1358 1375
f 1358 1359 1376
f 1359 1360 1377
f 1360 1361 1378
f 1257 1260 1259
f 1262 1268 1267
f 1263 1269 1268
f 1264 1270 1269
f 1265 1271 1270
f 1266 1272 1271
f 1269 1275 1274
f 1270 1276 1275
f 1271 1277 1276
f 1272 1278 1277
f 1273 1279 1278
f 1275 1283 1282
f 1276 1284 1283
f 1277 1285 1284
f 1278 1286 1285
f 1279 1287 1286
f 1280 1288 1287
f 1281 1289 1288
f 1284 1293 1292
f 1285 1294 1293
f 1286 1295 1294
f 1287 1296 1295
f 1288 1297 1296
f 1289 1298 1297
f 1290 1299 1298
f 1291 1300 1299
f 1293 1303 1302
f 1294 1304 1303
f 1295 1305 1304
f 1296 1306 1305
f 1297 1307 1306
f 1298 1308 1307
f 1299 1309 1308
f 1300 1310 1309
f 1302 1315 1314
f 1303 1316 1315
f 1304 1317 1316
f 1305 1318 1317
f 1306 1319 1318
f 1307 1320 1319
f 1308 1321 1320
f 1309 1322 1321
f 1310 1323 1322
f 1312 1329 1328
f 1313 1330 1329
f 1315 1332 1331
f 1316 1333 1332
f 1317 1334 1333
f 1318 1335 1334
f 1319 1336 1335
f 1320 1337 1336
f 1321 1338 1337
f 1322 1339 1338
f 1323 1340 1339
f 1324 1341 1340
f 1325 1342 1341
f 1326 1343 1342
f 1327 1346 1345
f 1328 1347 1346
f 1329 1348 1347
f 1330 1349 1348
f 1331 1350 1349
f 1332 1351 1350
f 1333 1352 1351
f 1334 1353 1352
f 1335 1354 1353
f 1336 1355 1354
f 1337 1356 1355
f 1338 1357 1356
f 1339 1358 1357
f 1340 1359 1358
f 1341 1360 1359
f 1342 1361 1360
f 1343 1362 1361
f 1348 1366 1365
f 1349 1367 1366
f 1350 1368 1367
f 1351 1369 1368
f 1352 1370 1369
f 1353 1371 1370
f 1354 1372 1371
f 1355 1373 1372
f 1356 1374 1373
f 1357 1375 1374
f 1358 1376 1375
f 1359 1377 1376
f 1360 1378 1377
f 1361 1379 1378
f 1380 1381 1384
f 1381 1382 1385
f 1384 1385 1390
f 1385 1386 1391
f 1386 1387 1392
f 1387 1388 1393
f 1390 1391 1398
f 1391 1392 1399
f 1392 1393 1400
f 1393 1394 1401
f 1394 1395 1402
f 1395 1396 1403
f 1396 1397 1404
f 1401 1402 1408
f 1402 1403 1409
f 1403 1404 1410
f 1404 1405 1411
f 1405 1406 1412
f 1406 1407 1413
f 1412 1413 1417
f 1413 1414 1418
f 1414 1415 1419
f 1415 1416 1420
f 1420 1421 1422
f 1381 1385 1384
f 1382 1386 1385
f 1383 1387 1386
f 1385 1391 1390
f 1386 1392 1391
f 1387 1393 1392
f 1388 1394 1393
f 1389 1395 1394
f 1392 1400 1399
f 1393 1401 1400
f 1394 1402 1401
f 1395 1403 1402
f 1396 1404 1403
f 1397 1405 1404
f 1402 1409 1408
f 1403 1410 1409
f 1404 1411 1410
f 1405 1412 1411
f 1406 1413 1412
f 1407 1414 1413
f 1414 1419 1418
f 1415 1420 1419
f 1416 1421 1420
